<?xml version="1.0" standalone="no"?>
<!DOCTYPE svg PUBLIC "-//W3C//DTD SVG 1.1//EN" "http://www.w3.org/Graphics/SVG/1.1/DTD/svg11.dtd" >
<svg xmlns="http://www.w3.org/2000/svg">
<metadata></metadata>
<defs>
<font id="karnak_pro_boldbold" horiz-adv-x="1314" >
<font-face units-per-em="2048" ascent="1536" descent="-512" />
<missing-glyph horiz-adv-x="532" />
<glyph unicode="&#xfb01;" horiz-adv-x="1265" d="M20 0v217h134v533h-134v217h134v149q0 198 94.5 299t253.5 101q37 0 72 -5t51 -9l16 -3v-237q-20 4 -45 4q-117 0 -117 -150v-149h133v-217h-133v-533h133v-217h-592zM653 0v217h133v533h-133v217h459v-750h133v-217h-592zM743 1335q0 78 55.5 134.5t133.5 56.5 t134 -56.5t56 -134.5t-56 -133t-134 -55t-133.5 55t-55.5 133z" />
<glyph unicode="&#xfb02;" horiz-adv-x="1296" d="M20 0v217h134v533h-134v217h134v149q0 198 94.5 299t253.5 101q37 0 72 -5t51 -9l16 -3v-237q-20 4 -45 4q-117 0 -117 -150v-149h133v-217h-133v-533h133v-217h-592zM684 0v217h133v1057h-133v217h459v-1274h133v-217h-592z" />
<glyph horiz-adv-x="0" />
<glyph horiz-adv-x="0" />
<glyph horiz-adv-x="682" />
<glyph unicode="&#xd;" horiz-adv-x="532" />
<glyph unicode=" "  horiz-adv-x="532" />
<glyph unicode="&#x09;" horiz-adv-x="532" />
<glyph unicode="&#xa0;" horiz-adv-x="532" />
<glyph unicode="!" horiz-adv-x="552" d="M92 1491h369l-55 -1053h-259zM139 0v283h275v-283h-275z" />
<glyph unicode="&#x22;" horiz-adv-x="772" d="M72 1001l32 490h263l-97 -490h-198zM416 1001l33 490h262l-97 -490h-198z" />
<glyph unicode="#" horiz-adv-x="954" d="M-31 631l37 211h119l35 198h-119l37 211h119l43 240h223l-43 -240h172l43 240h223l-43 -240h119l-37 -211h-119l-35 -198h119l-37 -211h-120l-41 -240h-224l41 240h-172l-41 -240h-223l41 240h-117zM348 842h172l35 198h-172z" />
<glyph unicode="$" horiz-adv-x="1167" d="M51 0v500h230q9 -133 97 -203t216 -70q87 0 142 41.5t55 118.5q0 47 -25 84t-67.5 63t-97.5 49t-116 46.5t-122 50t-116 65t-97.5 86t-67.5 118t-25 157.5q0 177 122 291t306 123v139h185v-160q46 -14 87 -34.5t59 -34.5l18 -13v74h233v-473q-47 2 -233 2q0 122 -76 190 t-193 68q-72 0 -117 -39.5t-45 -103.5q0 -42 25.5 -75.5t68.5 -58t99 -46.5t117.5 -46t123 -51.5t117.5 -67.5t99 -89.5t68.5 -122.5t25.5 -162q0 -198 -129.5 -322.5t-343.5 -124.5h-4v-172h-185v199q-57 16 -107.5 40.5t-72.5 41.5l-22 16v-94h-232z" />
<glyph unicode="%" horiz-adv-x="1431" d="M41 1108q0 186 84.5 291.5t218.5 105.5t218.5 -105.5t84.5 -291.5t-84.5 -291.5t-218.5 -105.5t-218.5 105.5t-84.5 291.5zM240 1108q0 -258 104 -258q105 0 105 258t-105 258q-104 0 -104 -258zM283 0l686 1491h180l-686 -1491h-180zM784 383q0 186 84.5 291.5 t218.5 105.5t219 -105.5t85 -291.5t-85 -291.5t-219 -105.5t-218.5 105.5t-84.5 291.5zM983 383q0 -258 104 -258q105 0 105 258t-105 258q-104 0 -104 -258z" />
<glyph unicode="&#x26;" horiz-adv-x="1519" d="M31 426q0 87 24 161t69 130t96 98t118 80q-84 118 -84 254q0 171 122.5 272t303.5 101q71 0 142.5 -21.5t134 -62.5t102 -110t39.5 -154q0 -113 -66.5 -193.5t-185.5 -151.5l217 -256q41 121 41 250h397v-237h-149q-29 -110 -103 -230l103 -118h157v-238h-430l-80 94 q-189 -125 -417 -125q-106 0 -202.5 28t-175.5 82t-126 143.5t-47 203.5zM385 410q0 -95 66.5 -149t169.5 -54q116 0 225 74l-309 372q-152 -106 -152 -243zM590 1186q0 -58 67 -137q66 34 101 68t35 75q0 40 -28 66t-71 26q-46 0 -75 -27.5t-29 -70.5z" />
<glyph unicode="'" horiz-adv-x="428" d="M72 1001l32 490h263l-97 -490h-198z" />
<glyph unicode="(" horiz-adv-x="589" d="M20 713q0 169 26 330.5t63 271.5t74 195.5t63 125.5l26 41h277q-8 -16 -22 -46t-50 -129t-63 -204.5t-49.5 -265.5t-22.5 -319q0 -160 21.5 -318t52 -269.5t60.5 -200.5t52 -133l21 -44h-277q-10 15 -27 42.5t-60.5 122.5t-77 199t-60.5 267.5t-27 333.5z" />
<glyph unicode=")" horiz-adv-x="589" d="M41 -252q8 16 22 46t50 129t63 204.5t49.5 265.5t22.5 320q0 159 -21.5 317t-52 269.5t-60.5 200.5t-52 133l-21 44h276q10 -15 27 -42.5t60.5 -122.5t77 -199t60.5 -267.5t27 -332.5q0 -170 -26 -331.5t-63 -271.5t-74 -195.5t-63 -126.5l-26 -40h-276z" />
<glyph unicode="*" horiz-adv-x="878" d="M72 1061l204 74l-204 75l118 205l168 -141l-36 217h235l-37 -217l168 141l119 -205l-205 -75l205 -74l-119 -205l-170 139l39 -215h-235l36 215l-168 -139z" />
<glyph unicode="+" horiz-adv-x="946" d="M41 406v245h307v310h250v-310h307v-245h-307v-310h-250v310h-307z" />
<glyph unicode="," horiz-adv-x="458" d="M82 -256l151 256h-141v283h275v-283l-160 -256h-125z" />
<glyph unicode="-" horiz-adv-x="835" d="M92 422v244h651v-244h-651z" />
<glyph unicode="." horiz-adv-x="458" d="M92 0v283h275v-283h-275z" />
<glyph unicode="/" horiz-adv-x="987" d="M10 -41l662 1567h305l-662 -1567h-305z" />
<glyph unicode="0" horiz-adv-x="1253" d="M41 745q0 183 44 331t122.5 245t185.5 149t234 52t234 -52t185 -149t122 -245t44 -331t-44 -330.5t-122 -244.5t-185 -149t-234 -52t-234 52t-185.5 149t-122.5 244.5t-44 330.5zM397 745q0 -538 230 -538q229 0 229 538q0 539 -229 539q-230 0 -230 -539z" />
<glyph unicode="1" horiz-adv-x="770" d="M31 0v238h176v933h-176v238q48 0 90 8.5t67.5 20.5t44 24t25.5 20l8 9h297v-1253h176v-238h-708z" />
<glyph unicode="2" horiz-adv-x="1169" d="M10 0v211l660 635q114 109 114 223q0 85 -50 145t-152 60q-88 0 -150 -52t-72 -147h140v-192h-469v73q0 257 153 411.5t406 154.5q235 0 387.5 -124t152.5 -325q0 -69 -17.5 -129.5t-54 -115.5t-75 -98t-98.5 -99l-422 -393h411v208h275v-446h-1139z" />
<glyph unicode="3" horiz-adv-x="1175" d="M20 444h320q0 -9 2.5 -24t17 -53t37.5 -67t72.5 -53t114.5 -24q99 0 159 62.5t60 163.5q0 37 -14 73.5t-43.5 70t-84 54.5t-126.5 21v213h30q106 0 167 48.5t61 141.5q0 87 -59.5 139t-160.5 52q-60 0 -108 -17.5t-73.5 -42t-42.5 -49t-22 -41.5l-5 -18h110v-193h-409 v113q0 146 74.5 263t201 181t279.5 64q235 0 385.5 -120.5t150.5 -314.5q0 -64 -17.5 -119.5t-43 -88.5t-51 -56.5t-42.5 -32.5l-18 -10q8 -3 22 -10t49 -35t61.5 -63t48.5 -98t22 -136q0 -214 -151.5 -341.5t-389.5 -127.5q-115 0 -214 28t-179.5 84.5t-130.5 149 t-60 213.5z" />
<glyph unicode="4" horiz-adv-x="1175" d="M0 375v239l664 877h335v-879h146v-237h-146v-137h146v-238h-678v238h176v137h-643zM319 612h324v426z" />
<glyph unicode="5" horiz-adv-x="1126" d="M20 449h320q0 -9 1.5 -24.5t13 -54.5t30.5 -68.5t60 -54t96 -24.5q102 0 155.5 73t53.5 187q0 151 -70 226t-180 75q-64 0 -121.5 -22t-82.5 -44l-26 -22h-207v795h906v-256h-633v-258q11 6 30.5 14.5t84.5 22.5t133 14q218 0 359.5 -143.5t141.5 -376.5 q0 -251 -149 -395t-385 -144q-225 0 -370.5 124.5t-160.5 355.5z" />
<glyph unicode="6" horiz-adv-x="1177" d="M41 692q0 129 17.5 243.5t61 223.5t109.5 187.5t171 126t239 47.5q84 0 155 -21t117.5 -54.5t83 -73.5t56.5 -80.5t32.5 -74t16.5 -54.5l4 -21h-285q-2 6 -5 15.5t-17 34.5t-31.5 44.5t-50 35t-70.5 15.5q-110 0 -172 -92.5t-84 -284.5q110 101 270 101q100 0 188 -34 t155 -98t106 -163t39 -221q0 -236 -146.5 -380.5t-375.5 -144.5q-144 0 -257 57.5t-183.5 157.5t-107 229t-36.5 279zM385 537q5 -48 14.5 -89.5t27.5 -84.5t42.5 -73.5t63 -49.5t85.5 -19q94 0 147.5 71.5t53.5 194.5q0 128 -52 203.5t-149 75.5q-103 0 -156 -62.5 t-77 -166.5z" />
<glyph unicode="7" horiz-adv-x="1138" d="M41 1057v434h1067v-242l-633 -1249h-393l657 1253h-434v-196h-264z" />
<glyph unicode="8" horiz-adv-x="1187" d="M25 424q0 60 13.5 114t35 91.5t47.5 69t52.5 51t48 33t34.5 19.5l14 5q-7 4 -19.5 11t-44.5 34t-56 59t-44 85.5t-20 113.5q0 186 139 299t369 113t369 -113t139 -299q0 -60 -19 -113t-46 -86t-54 -58t-46 -35l-19 -11q10 -4 26.5 -11.5t58.5 -38.5t74.5 -70.5t59 -109.5 t26.5 -153q0 -94 -34.5 -174.5t-102 -144t-178.5 -100t-254 -36.5t-254 36.5t-178.5 100t-102 144t-34.5 174.5zM381 438q0 -113 58.5 -176t154.5 -63t154.5 63t58.5 176q0 119 -59.5 184.5t-153.5 65.5t-153.5 -65.5t-59.5 -184.5zM391 1092q0 -88 56 -141.5t147 -53.5 t147 53.5t56 141.5q0 94 -57.5 145t-145.5 51t-145.5 -51t-57.5 -145z" />
<glyph unicode="9" horiz-adv-x="1177" d="M31 995q0 236 146.5 380.5t375.5 144.5q144 0 257 -57.5t183.5 -157.5t107 -229t36.5 -279q0 -129 -17.5 -243.5t-61 -223.5t-109.5 -187.5t-171 -126t-239 -47.5q-84 0 -155 21t-117.5 54.5t-83 73.5t-56.5 80.5t-32.5 74t-16.5 54.5l-4 21h284q2 -6 5 -15.5t17 -34.5 t31.5 -44.5t50 -35t70.5 -15.5q109 0 171.5 92.5t82.5 282.5q-113 -99 -268 -99q-134 0 -243 58t-176.5 177t-67.5 281zM358 1001q0 -128 52 -203t149 -75q54 0 95.5 18.5t68 52t43 71t27.5 85.5q-7 61 -21 112.5t-40 100.5t-70 77t-103 28q-93 0 -147 -72t-54 -195z" />
<glyph unicode=":" horiz-adv-x="458" d="M92 0v283h275v-283h-275zM92 625v282h275v-282h-275z" />
<glyph unicode=";" horiz-adv-x="458" d="M82 -256l151 256h-141v283h275v-283l-160 -256h-125zM92 625v282h275v-282h-275z" />
<glyph unicode="&#x3c;" horiz-adv-x="946" d="M41 389v250l864 389v-254l-604 -260l604 -260v-254z" />
<glyph unicode="=" horiz-adv-x="946" d="M41 211v246h864v-246h-864zM41 600v246h864v-246h-864z" />
<glyph unicode="&#x3e;" horiz-adv-x="946" d="M41 0v254l602 260l-602 260v254l864 -389v-250z" />
<glyph unicode="?" horiz-adv-x="1054" d="M31 1094q15 199 151.5 313.5t349.5 114.5q219 0 350.5 -108.5t131.5 -283.5q0 -70 -22 -130t-57.5 -103t-78 -81t-85 -72t-78 -67.5t-57.5 -75.5t-22 -89v-104h-274v106q0 79 23.5 150.5t58.5 121.5t76.5 100.5t76.5 88.5t58.5 83.5t23.5 88.5q0 61 -37.5 99t-99.5 38 q-68 0 -111.5 -49t-43.5 -141h-334zM340 0v283h274v-283h-274z" />
<glyph unicode="@" horiz-adv-x="1835" d="M51 739q0 165 68.5 311t184.5 249t275 163t336 60q130 0 255.5 -32.5t236.5 -97.5t195 -154.5t133 -212.5t49 -263q0 -93 -23 -176t-67.5 -149t-117 -105t-163.5 -39t-168.5 39t-122.5 110q-104 -96 -272 -96q-164 0 -281.5 109t-117.5 282t117.5 282t281.5 109 q128 0 227 -61v43h252v-508q0 -70 20.5 -107.5t73.5 -37.5q121 0 121 299q0 272 -175.5 437t-453.5 165q-176 0 -318 -77t-224 -220t-82 -326q0 -175 82 -313.5t225.5 -214.5t321.5 -76q98 0 183 20t121 40l36 20l83 -145q-6 -4 -17.5 -10.5t-51 -24t-85 -30.5t-118.5 -23.5 t-151 -10.5q-191 0 -354.5 60.5t-275.5 164t-175.5 245.5t-63.5 302zM700 737q0 -101 57 -162t142 -61q115 0 178 88v268q-65 91 -178 91q-85 0 -142 -61.5t-57 -162.5z" />
<glyph unicode="A" horiz-adv-x="1597" d="M20 0v238h127l318 1015h-139v238h946v-238h-133l311 -1015h127v-238h-637v238h141l-63 219h-455l-65 -219h151v-238h-629zM633 694h315l-155 531z" />
<glyph unicode="B" horiz-adv-x="1316" d="M31 0v238h168v1015h-168v238h680q100 0 187 -23t157.5 -69.5t111.5 -126.5t41 -185q0 -92 -44 -169t-132 -127q130 -53 197 -149.5t67 -217.5q0 -88 -34 -164t-100.5 -134.5t-175.5 -92t-249 -33.5h-706zM555 238h131q123 0 188.5 56t65.5 150q0 95 -66 155t-188 60h-131 v-421zM555 874h117q107 0 162 54t55 137t-55 135.5t-162 52.5h-117v-379z" />
<glyph unicode="C" horiz-adv-x="1531" d="M41 752q0 220 97.5 396t271 275t389.5 99q235 0 430 -131v100h239v-617h-239v205q-140 185 -379 185q-107 0 -194 -40t-143 -109.5t-86 -162t-30 -200.5q0 -234 132 -378.5t356 -144.5q73 0 140.5 19t112 46.5t79 54.5t49.5 46l16 19l188 -189q-8 -10 -24 -27.5 t-73 -61.5t-121.5 -78t-169.5 -61.5t-218 -27.5q-128 0 -248.5 32.5t-224.5 98.5t-182 158t-123 219.5t-45 274.5z" />
<glyph unicode="D" horiz-adv-x="1554" d="M31 0v238h168v1015h-168v238h608q212 0 380.5 -55.5t276.5 -155.5t165 -236t57 -299t-57 -299t-165 -235.5t-276.5 -155t-380.5 -55.5h-608zM555 238h84q130 0 231 39.5t164 109.5t95 160.5t32 197.5t-32 197.5t-95 160.5t-164 110t-231 40h-84v-1015z" />
<glyph unicode="E" horiz-adv-x="1351" d="M31 0v238h168v1015h-168v238h1249v-465h-252v227h-473v-366h375v-230h-375v-419h473v247h252v-485h-1249z" />
<glyph unicode="F" horiz-adv-x="1310" d="M31 0v238h168v1015h-168v238h1249v-465h-252v227h-473v-376h375v-230h-375v-409h205v-238h-729z" />
<glyph unicode="G" horiz-adv-x="1550" d="M41 752q0 220 97.5 396t271 275t389.5 99q235 0 430 -131v100h239v-535h-239v123q-140 185 -379 185q-107 0 -194 -40t-143 -109.5t-86 -162t-30 -200.5q0 -237 137.5 -380t385.5 -143q136 0 254 54v198h-216v230h500v-584q-8 -6 -23.5 -17t-69 -38t-113.5 -48t-156 -38 t-197 -17q-108 0 -211 20t-199.5 60t-177.5 105t-141.5 149.5t-94.5 199.5t-34 249z" />
<glyph unicode="H" horiz-adv-x="1695" d="M31 0v238h168v1015h-168v238h682v-238h-158v-323h586v323h-158v238h682v-238h-168v-1015h168v-238h-682v238h158v462h-586v-462h158v-238h-682z" />
<glyph unicode="I" horiz-adv-x="753" d="M31 0v238h168v1015h-168v238h692v-238h-168v-1015h168v-238h-692z" />
<glyph unicode="J" horiz-adv-x="1216" d="M31 236v262h323v-179q1 -4 3.5 -10t13 -22t26 -28t44.5 -22t65 -10q74 0 117 50.5t43 154.5v821h-217v238h741v-238h-168v-821q0 -219 -132.5 -341t-371.5 -122q-81 0 -151.5 14.5t-119 38.5t-87.5 52t-62.5 56.5t-39 52.5t-21.5 39z" />
<glyph unicode="K" horiz-adv-x="1480" d="M31 0v238h168v1015h-168v238h671v-238h-147v-419l363 419h-93v238h580v-238h-82l-395 -462l438 -553h94v-238h-612v238h90l-383 485v-485h147v-238h-671z" />
<glyph unicode="L" horiz-adv-x="1241" d="M31 0v238h168v1015h-168v238h712v-238h-188v-1015h389v266h266v-504h-1179z" />
<glyph unicode="M" horiz-adv-x="1941" d="M31 0v238h168v1015h-168v238h717l223 -768l229 768h711v-238h-168v-1015h168v-238h-656v238h168v962l-315 -1038h-279l-315 1048v-972h168v-238h-651z" />
<glyph unicode="N" horiz-adv-x="1572" d="M31 0v238h168v1015h-168v238h610l418 -918v680h-148v238h631v-238h-168v-1253h-409l-451 987v-749h148v-238h-631z" />
<glyph unicode="O" horiz-adv-x="1683" d="M41 745q0 230 105.5 408t287 273.5t408.5 95.5t408.5 -95.5t286.5 -273.5t105 -408q0 -173 -61 -319t-168 -245.5t-254.5 -155.5t-316.5 -56q-227 0 -408.5 95t-287 273t-105.5 408zM397 745q0 -233 125 -375.5t320 -142.5t319.5 142.5t124.5 375.5t-125 376t-319 143 q-195 0 -320 -143t-125 -376z" />
<glyph unicode="P" horiz-adv-x="1308" d="M31 0v238h168v1015h-168v238h622q138 0 247 -27t178.5 -72t115.5 -107.5t65 -129t19 -141.5q0 -74 -19 -140.5t-65 -129t-115.5 -108t-178.5 -72.5t-247 -27h-98v-299h184v-238h-708zM555 774h84q146 0 214.5 65.5t68.5 174.5t-68.5 174t-214.5 65h-84v-479z" />
<glyph unicode="Q" horiz-adv-x="1683" d="M41 745q0 230 105.5 408t287 273.5t408.5 95.5t408.5 -95.5t286.5 -273.5t105 -408q0 -217 -93.5 -387t-258.5 -270l158 -166h201v-248h-377l-289 306q-83 -11 -141 -11q-227 0 -408.5 95t-287 273t-105.5 408zM397 745q0 -233 125 -375.5t320 -142.5t319.5 142.5 t124.5 375.5t-125 376t-319 143q-195 0 -320 -143t-125 -376z" />
<glyph unicode="R" horiz-adv-x="1409" d="M31 0v238h168v1015h-168v238h702q84 0 160.5 -12.5t149 -43.5t125 -78.5t84.5 -121.5t32 -168q0 -134 -74 -232.5t-223 -144.5q265 -119 285 -452h117v-238h-471v125q0 238 -81 357.5t-249 119.5h-33v-364h147v-238h-671zM555 819h121q120 0 185 56t65 161t-65 161 t-185 56h-121v-434z" />
<glyph unicode="S" horiz-adv-x="1177" d="M51 0v500h230q9 -133 97 -203t216 -70q87 0 142 41.5t55 118.5q0 47 -25 84t-67.5 63t-97.5 49t-116 46.5t-122 50t-116 65t-97.5 86t-67.5 118t-25 157.5q0 184 132 300t325 116q56 0 110 -11t90 -26t64.5 -30.5t41.5 -26.5l14 -11v74h233v-473q-47 2 -233 2 q0 122 -76 190t-193 68q-72 0 -117 -39.5t-45 -103.5q0 -42 25.5 -75.5t68.5 -58t99 -46.5t117.5 -46t123 -51.5t117.5 -67.5t99 -89.5t68.5 -122.5t25.5 -162q0 -198 -129.5 -322.5t-343.5 -124.5q-67 0 -132 13t-110 31.5t-80 36.5t-52 31l-17 13v-94h-232z" />
<glyph unicode="T" horiz-adv-x="1323" d="M31 1006v485h1261v-485h-252v247h-200v-1015h209v-238h-775v238h209v1015h-200v-247h-252z" />
<glyph unicode="U" horiz-adv-x="1626" d="M27 1253v238h671v-238h-147v-755q0 -132 61.5 -201.5t200.5 -69.5t200.5 69.5t61.5 201.5v755h-147v238h671v-238h-167v-745q0 -92 -21 -171.5t-68.5 -148t-118.5 -116.5t-175.5 -75.5t-235.5 -27.5q-162 0 -283.5 41.5t-193.5 116t-106.5 170t-34.5 211.5v745h-168z" />
<glyph unicode="V" horiz-adv-x="1544" d="M20 1253v238h664v-238h-168l260 -792l260 792h-172v238h660v-238h-129l-432 -1253h-377l-436 1253h-130z" />
<glyph unicode="W" horiz-adv-x="2369" d="M20 1253v238h611v-238h-115l229 -772l220 772h-80v238h610v-238h-76l213 -772l230 772h-111v238h598v-238h-127l-399 -1253h-410l-231 840l-238 -840h-401l-396 1253h-127z" />
<glyph unicode="X" horiz-adv-x="1519" d="M20 0v238h117l414 507l-406 508h-90v238h635v-238h-112l190 -239l197 239h-115v238h614v-238h-96l-399 -489l420 -526h110v-238h-655v238h112l-206 258l-209 -258h114v-238h-635z" />
<glyph unicode="Y" horiz-adv-x="1540" d="M16 1253v238h660v-238h-137l233 -405l240 405h-142v238h654v-238h-140l-436 -712v-303h168v-238h-692v238h168v292l-436 723h-140z" />
<glyph unicode="Z" horiz-adv-x="1331" d="M51 0v215l772 1038h-501v-227h-252v465h1196v-215l-770 -1038h542v247h252v-485h-1239z" />
<glyph unicode="[" horiz-adv-x="561" d="M20 -252v1929h500v-213h-178v-1503h178v-213h-500z" />
<glyph unicode="\" horiz-adv-x="987" d="M10 1526h305l662 -1567h-305z" />
<glyph unicode="]" horiz-adv-x="561" d="M41 -39h178v1503h-178v213h500v-1929h-500v213z" />
<glyph unicode="^" horiz-adv-x="1011" d="M41 1024l289 467h352l289 -467h-236l-229 262l-230 -262h-235z" />
<glyph unicode="_" horiz-adv-x="933" d="M0 -90h934v-225h-934v225z" />
<glyph unicode="`" horiz-adv-x="544" d="M41 1409h324l139 -319h-213z" />
<glyph unicode="a" d="M20 483q0 149 73 266.5t190.5 179.5t255.5 62q170 0 297 -82v58h325v-750h133v-217h-458v55q-125 -80 -297 -80q-138 0 -255.5 62t-190.5 179.5t-73 266.5zM346 483q0 -131 73 -210.5t183 -79.5q149 0 234 116v346q-82 119 -234 119q-110 0 -183 -80t-73 -211z" />
<glyph unicode="b" d="M20 0v217h134v1057h-134v217h459v-578q131 78 293 78q138 0 256.5 -62t192 -179.5t73.5 -266.5t-73.5 -266.5t-192 -179.5t-256.5 -62q-169 0 -293 76v-51h-459zM479 309q80 -116 234 -116q110 0 183 79.5t73 210.5t-73 211t-183 80q-152 0 -234 -119v-346z" />
<glyph unicode="c" horiz-adv-x="1044" d="M20 492q0 133 60.5 246t175 183t258.5 70q151 0 274 -86v62h220v-392h-220v72q-28 59 -82 93t-122 34q-110 0 -174 -83.5t-64 -205.5q0 -128 73.5 -211.5t203.5 -83.5q44 0 86 12.5t70 31t49.5 36.5t31.5 30l10 13l154 -163q-6 -7 -17.5 -19t-52.5 -42t-87 -53 t-120.5 -42t-154.5 -19q-123 0 -226.5 33.5t-181 97t-121 162.5t-43.5 224z" />
<glyph unicode="d" d="M20 483q0 149 74 266.5t192.5 179.5t256.5 62q162 0 293 -78v361h-134v217h459v-1274h133v-217h-458v51q-127 -76 -293 -76q-138 0 -256.5 62t-192.5 179.5t-74 266.5zM346 483q0 -131 73 -210.5t183 -79.5q149 0 234 116v346q-82 119 -234 119q-110 0 -183 -80t-73 -211 z" />
<glyph unicode="e" horiz-adv-x="1140" d="M31 492q0 98 39 188.5t107 159.5t168 110t214 41t214 -35.5t175 -101.5t118.5 -168.5t43.5 -228.5q0 -7 -1 -21.5t-1 -21.5h-750q18 -103 88.5 -163.5t186.5 -60.5q43 0 84 12.5t70 31t51.5 36.5t33.5 30l11 13l151 -163q-6 -7 -17.5 -19t-51.5 -42t-85 -53t-116.5 -42 t-147.5 -19q-117 0 -221 32.5t-186 95t-130 163t-48 226.5zM369 598h426q-23 85 -79.5 130.5t-135.5 45.5q-81 0 -135.5 -47.5t-75.5 -128.5z" />
<glyph unicode="f" horiz-adv-x="632" d="M20 0v217h134v533h-134v217h134v149q0 198 94.5 299t253.5 101q37 0 72 -5t51 -9l16 -3v-237q-20 4 -45 4q-117 0 -117 -150v-149h133v-217h-133v-533h133v-217h-592z" />
<glyph unicode="g" horiz-adv-x="1286" d="M20 494q0 104 40.5 196.5t110 158.5t166 104t204.5 38q146 0 266 -71v47h459v-217h-133v-586q0 -64 -3 -125q-12 -201 -167 -309.5t-412 -108.5q-114 0 -213.5 20t-142.5 40l-43 20l81 193q14 -8 39.5 -19t102 -30t149.5 -19q136 0 209.5 55.5t73.5 161.5v23 q-115 -70 -262 -70q-101 0 -195 35t-167.5 98t-118 158t-44.5 207zM346 494q0 -127 69.5 -204t182.5 -77q136 0 209 113v336q-72 112 -209 112q-113 0 -182.5 -76.5t-69.5 -203.5z" />
<glyph unicode="h" horiz-adv-x="1259" d="M20 0v217h134v1057h-134v217h459v-619q4 5 12 13t36 28.5t59 36t80.5 28.5t101.5 13q150 0 246 -90.5t96 -247.5v-436h133v-217h-571v217h112v408q0 65 -33.5 107t-97.5 42q-34 0 -64.5 -13t-49.5 -32t-33.5 -37.5t-20.5 -31.5l-6 -13v-430h113v-217h-572z" />
<glyph unicode="i" horiz-adv-x="632" d="M20 0v217h134v533h-134v217h459v-750h133v-217h-592zM111 1335q0 78 55 134.5t133 56.5t134 -56.5t56 -134.5t-56 -133t-134 -55t-133 55t-55 133z" />
<glyph unicode="j" horiz-adv-x="632" d="M8 -137q19 -4 33 -4q57 0 85 30t28 99v762h-134v217h459v-949q0 -99 -30.5 -173t-84.5 -117.5t-122 -64.5t-150 -21l-84 4v217zM109 1335q0 78 55 134.5t133 56.5t134 -56.5t56 -134.5t-56 -133t-134 -55t-133 55t-55 133z" />
<glyph unicode="k" horiz-adv-x="1239" d="M20 0v217h134v1057h-134v217h459v-961l262 220h-112v217h530v-217h-96l-256 -207l295 -326h121v-217h-340l-404 473v-256h133v-217h-592z" />
<glyph unicode="l" horiz-adv-x="632" d="M20 0v217h134v1057h-134v217h459v-1274h133v-217h-592z" />
<glyph unicode="m" horiz-adv-x="1849" d="M20 0v217h134v533h-134v217h459v-95q4 5 12 13t34.5 28.5t56.5 36t76.5 28.5t95.5 13q101 0 178 -42.5t117 -119.5q125 162 315 162q152 0 244 -91t92 -247v-436h133v-217h-561v217h102v408q0 72 -33.5 110.5t-95.5 38.5q-32 0 -59.5 -13t-44 -32t-29 -37.5t-17.5 -31.5 l-5 -13v-430h102v-217h-530v217h102v408q0 72 -33.5 110.5t-95.5 38.5q-50 0 -89 -32t-53 -64l-14 -31v-430h103v-217h-562z" />
<glyph unicode="n" horiz-adv-x="1259" d="M20 0v217h134v533h-134v217h459v-95q4 5 12 13t36 28.5t59 36t80.5 28.5t101.5 13q150 0 246 -90.5t96 -247.5v-436h133v-217h-571v217h112v408q0 65 -33.5 107t-97.5 42q-34 0 -64.5 -13t-49.5 -32t-33.5 -37.5t-20.5 -31.5l-6 -13v-430h113v-217h-572z" />
<glyph unicode="o" horiz-adv-x="1167" d="M20 483q0 103 37 194t106 161.5t178 111.5t243 41t243 -41t178 -111.5t105.5 -161.5t36.5 -194t-36.5 -194t-105.5 -161.5t-178 -111.5t-243 -41t-243 41t-178 111.5t-106 161.5t-37 194zM346 483q0 -132 63.5 -211t174.5 -79t174 79t63 211t-63 211.5t-174 79.5 t-174.5 -79.5t-63.5 -211.5z" />
<glyph unicode="p" d="M20 -137h134v887h-134v217h459v-54q131 78 293 78q138 0 256.5 -62t192 -179.5t73.5 -266.5t-73.5 -266.5t-192 -179.5t-256.5 -62q-169 0 -293 76v-188h133v-217h-592v217zM479 309q29 -45 86.5 -80.5t147.5 -35.5q110 0 183 79.5t73 210.5t-73 211t-183 80 q-152 0 -234 -119v-346z" />
<glyph unicode="q" d="M20 483q0 149 74 266.5t192.5 179.5t256.5 62q162 0 293 -78v54h458v-217h-133v-887h133v-217h-592v217h134v188q-127 -76 -293 -76q-138 0 -256.5 62t-192.5 179.5t-74 266.5zM346 483q0 -131 73 -210.5t183 -79.5q149 0 234 116v346q-82 119 -234 119q-110 0 -183 -80 t-73 -211z" />
<glyph unicode="r" horiz-adv-x="835" d="M20 0v217h134v533h-134v217h459v-162q19 30 44.5 56.5t66 56.5t99 47.5t126.5 17.5v-289q-45 4 -86 4q-106 0 -168.5 -51.5t-81.5 -130.5v-299h133v-217h-592z" />
<glyph unicode="s" horiz-adv-x="917" d="M41 0v356h188q17 -85 88.5 -139.5t161.5 -54.5q64 0 95.5 28t31.5 66q0 55 -40 78.5t-144 42.5q-92 17 -156 38.5t-116.5 58t-78.5 93.5t-26 135q0 127 98.5 208t237.5 81q71 0 137 -16.5t96 -32.5l31 -16v41h182v-299h-170q0 54 -59 99.5t-147 45.5q-66 0 -97.5 -23.5 t-31.5 -64.5q0 -42 38.5 -59t133.5 -33q120 -20 201 -53t124 -79t60.5 -97.5t17.5 -120.5q0 -139 -97.5 -223.5t-256.5 -84.5q-57 0 -110.5 10.5t-89 25.5t-62.5 30.5t-39 26.5l-13 10v-78h-188z" />
<glyph unicode="t" horiz-adv-x="671" d="M20 750v217h134v333h325v-333h172v-217h-172v-533h172v-217h-497v750h-134z" />
<glyph unicode="u" horiz-adv-x="1259" d="M16 750v217h459v-625q0 -65 33.5 -107t97.5 -42q34 0 64.5 13t49.5 31.5t33.5 37t20.5 31.5l6 13v431h-112v217h438v-748h133v-219h-459v94q-4 -5 -12 -13t-35.5 -28.5t-58.5 -36t-80.5 -28.5t-101.5 -13q-150 0 -246 90.5t-96 247.5v437h-134z" />
<glyph unicode="v" horiz-adv-x="1171" d="M16 750v217h514v-217h-81l141 -375l147 375h-82v217h500v-217h-106l-318 -750h-305l-303 750h-107z" />
<glyph unicode="w" horiz-adv-x="1761" d="M16 750v217h502v-217h-96l139 -400l180 617h279l184 -613l144 396h-97v217h494v-217h-103l-286 -750h-324l-153 518l-150 -518h-332l-278 750h-103z" />
<glyph unicode="x" horiz-adv-x="1101" d="M20 0v217h101l237 268l-206 265h-111v217h348l186 -238l211 238h275v-217h-109l-209 -236l236 -297h102v-217h-342l-213 270l-239 -270h-267z" />
<glyph unicode="y" horiz-adv-x="1208" d="M16 750v217h523v-217h-93l158 -367l172 367h-92v217h508v-217h-105l-413 -887h110v-217h-536v217h112l82 174l-321 713h-105z" />
<glyph unicode="z" horiz-adv-x="1009" d="M20 0v178l512 572h-296v-160h-216v377h934v-187l-501 -563h321v160h215v-377h-969z" />
<glyph unicode="{" horiz-adv-x="645" d="M-20 602v221h28q96 0 96 107v438q0 167 76 238t240 71h184v-213h-110q-70 0 -70 -73v-465q0 -53 -17 -94.5t-41.5 -63t-49 -35t-41.5 -17.5l-17 -3q7 -1 18 -3.5t39.5 -17t50.5 -35.5t40 -62.5t18 -94.5v-465q0 -36 18.5 -55t51.5 -19h110v-213h-184q-164 0 -240 71 t-76 238v439q0 106 -96 106h-28z" />
<glyph unicode="|" horiz-adv-x="514" d="M102 -197v1887h310v-1887h-310z" />
<glyph unicode="}" horiz-adv-x="645" d="M41 -39h111q69 0 69 74v465q0 53 17 94.5t41.5 63t49 35t41.5 17.5l17 3q-7 1 -18 3.5t-39.5 17t-50.5 35.5t-40 62.5t-18 94.5v465q0 73 -69 73h-111v213h184q164 0 240 -71t76 -238v-438q0 -107 96 -107h29v-221h-29q-96 0 -96 -106v-439q0 -167 -76 -238t-240 -71 h-184v213z" />
<glyph unicode="~" horiz-adv-x="1087" d="M41 1073q0 74 18.5 137.5t55.5 113t97.5 78t137.5 28.5q64 0 126 -22t102 -49t85 -49t78 -22q93 0 93 125h213q0 -100 -32 -178.5t-103.5 -128t-174.5 -49.5q-64 0 -126 22t-102 48.5t-85 48.5t-78 22q-92 0 -92 -125h-213z" />
<glyph unicode="&#xa1;" horiz-adv-x="552" d="M92 -524l55 1052h259l55 -1052h-369zM139 684v283h275v-283h-275z" />
<glyph unicode="&#xa2;" horiz-adv-x="1044" d="M20 1016q0 129 58 241t168.5 183t249.5 76v145h141v-162q81 -21 151 -69v61h220v-391h-220v71q-49 97 -151 121v-577q41 2 80 15t65.5 31t47.5 35.5t30 29.5l10 12l154 -164q-5 -6 -15.5 -17t-47.5 -38.5t-78 -50t-108 -43t-138 -25.5v-174h-141v178q-215 26 -345.5 158 t-130.5 354zM346 1010q0 -93 39 -164.5t111 -104.5v539q-71 -30 -110.5 -103t-39.5 -167z" />
<glyph unicode="&#xa3;" horiz-adv-x="1118" d="M31 0v221q14 0 37.5 3.5t62 16.5t70 34t55 61.5t23.5 93.5q0 77 -64 195h-184v223h65q-59 128 -59 246q0 193 121.5 310.5t328.5 117.5q89 0 168 -27t113 -53l35 -27v76h264v-471h-242q0 5 -1 14.5t-6 36.5t-13.5 51.5t-26 54.5t-40.5 51.5t-60 36.5t-82 15 q-92 0 -147.5 -57t-55.5 -158q0 -82 60 -217h364v-223h-270q26 -86 26 -162q0 -45 -10 -86t-24.5 -67t-29 -45t-24.5 -27l-10 -9h336v203h256v-432h-1036z" />
<glyph unicode="&#xa4;" horiz-adv-x="1138" d="M102 412l123 123q-59 92 -59 210q0 119 59 211l-123 123l134 133l122 -122q97 59 211 59t211 -59l123 122l133 -133l-123 -123q60 -99 60 -211q0 -111 -60 -210l123 -123l-133 -133l-123 122q-92 -59 -211 -59t-211 59l-122 -122zM371 745q0 -83 57.5 -140.5t140.5 -57.5 t141 57.5t58 140.5t-58 141t-141 58t-140.5 -58t-57.5 -141z" />
<glyph unicode="&#xa5;" horiz-adv-x="1458" d="M20 1251v240h627v-240h-133l215 -389l223 389h-131v240h617v-240h-119l-293 -493h248v-232h-371v-288h168v-238h-684v238h168v288h-373v232h242l-285 493h-119z" />
<glyph unicode="&#xa6;" horiz-adv-x="514" d="M102 -197v859h310v-859h-310zM102 831v859h310v-859h-310z" />
<glyph unicode="&#xa7;" horiz-adv-x="952" d="M41 43h188q2 -96 61 -161.5t167 -65.5q69 0 112 42t43 105q0 52 -31.5 92.5t-81.5 68.5t-110 55t-120.5 61.5t-110.5 79t-81.5 117t-31.5 165.5q0 58 15 110t38 86t38 51.5t28 27.5q-119 107 -119 282q0 154 100 255.5t261 101.5q68 0 127.5 -16.5t85.5 -33.5l26 -16v41 h176v-299h-164q0 54 -48 104t-130 50q-67 0 -112 -41.5t-45 -110.5q0 -42 21 -76t56 -58t81 -45t96.5 -42t101 -45t96.5 -58t81 -76t56 -104.5t21 -138.5q0 -170 -148 -279q119 -107 119 -286q0 -151 -105.5 -258t-269.5 -107q-55 0 -105.5 10t-84.5 24.5t-59.5 29 t-37.5 24.5l-12 10v-73h-188v397zM322 618q0 -39 17 -70.5t52 -56t69 -41.5t88 -41q13 -5 19 -8q72 40 72 127q0 16 -4 31.5t-9.5 27.5t-17.5 25.5t-21 22t-28 20.5t-29.5 19t-35 18.5t-36 17t-40 18t-39.5 17.5q-57 -49 -57 -127z" />
<glyph unicode="&#xa8;" horiz-adv-x="745" d="M41 1229q0 60 42.5 102.5t102.5 42.5t103 -42.5t43 -102.5t-43 -103t-103 -43t-102.5 43t-42.5 103zM414 1229q0 60 42.5 102.5t102.5 42.5t103 -42.5t43 -102.5t-43 -103t-103 -43t-102.5 43t-42.5 103z" />
<glyph unicode="&#xa9;" horiz-adv-x="1675" d="M61 745q0 158 61.5 301.5t166 248t248 166t301.5 61.5t301.5 -61.5t247.5 -166t165.5 -248t61.5 -301.5t-61.5 -301.5t-165.5 -247.5t-247.5 -165.5t-301.5 -61.5t-301.5 61.5t-248 165.5t-166 247.5t-61.5 301.5zM174 745q0 -180 89 -333t241.5 -241.5t333.5 -88.5 q135 0 258 52.5t211.5 141t141 211.5t52.5 258q0 181 -88.5 333.5t-241.5 241.5t-333 89q-181 0 -333.5 -89t-241.5 -241.5t-89 -333.5zM362 745q0 204 130.5 336.5t330.5 132.5q137 0 252 -71v53h156v-383h-156v123q-84 111 -221 111q-125 0 -195.5 -85.5t-70.5 -216.5 q0 -137 77.5 -222t208.5 -85q43 0 83.5 11.5t68 28t48 33.5t30.5 29l10 11l121 -121q-5 -7 -15 -17.5t-45.5 -38t-75 -48.5t-104 -38.5t-133.5 -17.5q-98 0 -187.5 32t-159.5 90.5t-111.5 150t-41.5 202.5z" />
<glyph unicode="&#xaa;" horiz-adv-x="733" d="M10 1219q0 125 86 204.5t205 79.5q90 0 158 -41v29h192v-414h72v-131h-264v25q-67 -39 -158 -39q-120 0 -205.5 80t-85.5 207zM203 1219q0 -69 38 -111.5t95 -42.5q78 0 123 57v191q-46 59 -123 59q-57 0 -95 -42t-38 -111z" />
<glyph unicode="&#xab;" horiz-adv-x="1026" d="M51 387l242 387h262l-225 -387l225 -387h-262zM471 387l242 387h262l-225 -387l225 -387h-262z" />
<glyph unicode="&#xac;" horiz-adv-x="1165" d="M41 821v223h1083v-581h-235v358h-848z" />
<glyph unicode="&#xad;" horiz-adv-x="835" d="M92 422v244h651v-244h-651z" />
<glyph unicode="&#xae;" horiz-adv-x="1380" d="M51 883q0 130 50.5 248t136.5 204t204 136.5t248 50.5t248 -50.5t204 -136.5t136.5 -204t50.5 -248t-50.5 -248t-136.5 -204t-204 -136.5t-248 -50.5t-248 50.5t-204 136.5t-136.5 204t-50.5 248zM164 883q0 -143 70.5 -264.5t191.5 -192t264 -70.5t264.5 70.5t192 192 t70.5 264.5t-70.5 264t-192 191.5t-264.5 70.5t-264 -70.5t-191.5 -191.5t-70.5 -264zM403 543v123h76v440h-76v125h324q50 0 93.5 -10t81 -32t59.5 -63t22 -96q0 -122 -119 -170q105 -56 115 -194h51v-123h-227v63q0 207 -148 207v-147h58v-123h-310zM655 928h47 q50 0 77.5 23.5t27.5 66.5q0 42 -27.5 65t-77.5 23h-47v-178z" />
<glyph unicode="&#xaf;" horiz-adv-x="659" d="M41 1090v213h577v-213h-577z" />
<glyph unicode="&#xb0;" horiz-adv-x="745" d="M41 1190q0 136 97.5 234t234.5 98t234.5 -98t97.5 -234t-97.5 -234t-234.5 -98t-234.5 98t-97.5 234zM225 1190q0 -62 43.5 -105t104.5 -43t104 43t43 105t-43 104.5t-104 42.5q-62 0 -105 -43t-43 -104z" />
<glyph unicode="&#xb1;" horiz-adv-x="946" d="M41 0v246h864v-246h-864zM41 631v246h307v309h250v-309h307v-246h-307v-309h-250v309h-307z" />
<glyph unicode="&#xb2;" horiz-adv-x="600" d="M0 725v119l332 321q55 55 55 105q0 38 -23 65t-69 27q-36 0 -62.5 -20.5t-35.5 -59.5h67v-117h-254v41q0 134 80.5 216.5t210.5 82.5q123 0 201 -64t78 -169q0 -68 -30.5 -115.5t-96.5 -109.5l-193 -183h172v103h158v-242h-590z" />
<glyph unicode="&#xb3;" horiz-adv-x="612" d="M10 967h180q0 -47 33 -79t82 -32q41 0 68.5 27t27.5 67q0 54 -37 81.5t-98 27.5v127h23q48 0 77 21.5t29 62.5q0 40 -29.5 63t-72.5 23q-24 0 -43.5 -6.5t-31 -16t-20 -19t-11.5 -16.5l-3 -6h52v-116h-226v57q0 116 82 194t203 78q123 0 203 -62.5t80 -164.5 q0 -27 -7.5 -53t-18.5 -43.5t-22 -31t-18 -20.5l-8 -6q4 -2 9.5 -5t21 -17t27 -30.5t21 -46.5t9.5 -64q0 -113 -76.5 -182.5t-200.5 -69.5q-80 0 -145.5 26t-110 86t-49.5 146z" />
<glyph unicode="&#xb4;" horiz-adv-x="544" d="M41 1090l139 319h324l-250 -319h-213z" />
<glyph unicode="&#xb6;" horiz-adv-x="1247" d="M10 1016q0 90 32 172t96 151.5t173 110.5t250 41h656v-217h-113v-1628h-236v1628h-114v-1628h-234v895q-105 5 -191.5 34.5t-144.5 75.5t-98 106.5t-58 125t-18 133.5zM244 1016q0 -127 76.5 -192.5t199.5 -65.5v516q-123 0 -199.5 -65.5t-76.5 -192.5z" />
<glyph unicode="&#xb7;" horiz-adv-x="458" d="M92 623v282h275v-282h-275z" />
<glyph unicode="&#xb8;" horiz-adv-x="612" d="M41 -545l59 164q55 -18 123 -18q49 0 85 19.5t36 64.5q0 40 -40.5 59.5t-94.5 19.5q-19 0 -36.5 -1.5t-25.5 -2.5l-8 -2l127 244h160l-59 -117q90 -10 147 -62t57 -142q0 -112 -90.5 -184t-240.5 -72q-56 0 -106 7.5t-72 15.5z" />
<glyph unicode="&#xb9;" horiz-adv-x="415" d="M20 725v139h89v447h-89v139q40 0 70 10t40 20l11 11h166v-627h88v-139h-375z" />
<glyph unicode="&#xba;" horiz-adv-x="653" d="M10 1221q0 121 84 202.5t232 81.5q149 0 233 -81.5t84 -202.5q0 -122 -84 -204.5t-233 -82.5q-148 0 -232 83t-84 204zM203 1221q0 -70 32.5 -112t90.5 -42q59 0 92 42t33 112t-33 111.5t-92 41.5q-58 0 -90.5 -41.5t-32.5 -111.5z" />
<glyph unicode="&#xbb;" horiz-adv-x="1026" d="M51 0l225 387l-225 387h262l242 -387l-242 -387h-262zM471 0l225 387l-225 387h262l242 -387l-242 -387h-262z" />
<glyph unicode="&#xbc;" horiz-adv-x="1230" d="M41 725v139h88v447h-88v139q40 0 70 10t41 20l10 11h166v-627h88v-139h-375zM176 0l686 1491h180l-686 -1491h-180zM618 197v125l338 444h183v-440h71v-129h-71v-58h71v-139h-358v139h88v58h-322zM801 326h139v182z" />
<glyph unicode="&#xbd;" horiz-adv-x="1343" d="M41 725v139h88v447h-88v139q40 0 70 10t41 20l10 11h166v-627h88v-139h-375zM176 0l686 1491h180l-686 -1491h-180zM713 0v119l331 321q56 56 56 105q0 38 -23 65t-69 27q-36 0 -63 -20.5t-36 -59.5h68v-117h-254v41q0 134 80.5 216.5t210.5 82.5q123 0 200.5 -64 t77.5 -169q0 -68 -30.5 -115.5t-96.5 -109.5l-192 -183h172v105h158v-244h-590z" />
<glyph unicode="&#xbe;" horiz-adv-x="1374" d="M41 969h180q0 -47 33 -79t82 -32q41 0 68.5 27t27.5 67q0 54 -37 81.5t-98 27.5v127h22q48 0 77.5 21.5t29.5 62.5q0 40 -29.5 63t-72.5 23q-24 0 -43.5 -6.5t-31 -16t-20 -19t-11.5 -16.5l-3 -6h51v-116h-225v57q0 116 82 194t203 78q123 0 202.5 -62.5t79.5 -164.5 q0 -42 -18.5 -80.5t-32.5 -53.5t-22 -20q5 -2 11 -6t21 -18t26.5 -31t20.5 -46t9 -62q0 -113 -76.5 -182.5t-200.5 -69.5q-80 0 -145.5 26t-110 86t-49.5 146zM319 0l687 1491h180l-686 -1491h-181zM762 197v125l338 444h182v-440h72v-129h-72v-58h72v-139h-359v139h88v58 h-321zM944 326h139v182z" />
<glyph unicode="&#xbf;" horiz-adv-x="1054" d="M51 -164q0 70 22 130t57.5 103t78 81t85 72t78 68t57.5 76t22 89v104h274v-106q0 -79 -23.5 -150.5t-58.5 -121.5t-76.5 -100.5t-76.5 -88.5t-58.5 -83.5t-23.5 -88.5q0 -61 37.5 -99t99.5 -38q68 0 111.5 49t43.5 141h334q-15 -199 -152 -313.5t-350 -114.5 q-219 0 -350 108t-131 283zM451 684v283h274v-283h-274z" />
<glyph unicode="&#xc0;" horiz-adv-x="1597" d="M20 0v238h127l318 1015h-139v238h946v-238h-133l311 -1015h127v-238h-637v238h141l-63 219h-455l-65 -219h151v-238h-629zM455 1933h324l139 -319h-213zM633 694h315l-155 531z" />
<glyph unicode="&#xc1;" horiz-adv-x="1597" d="M20 0v238h127l318 1015h-139v238h946v-238h-133l311 -1015h127v-238h-637v238h141l-63 219h-455l-65 -219h151v-238h-629zM633 694h315l-155 531zM696 1614l140 319h323l-250 -319h-213z" />
<glyph unicode="&#xc2;" horiz-adv-x="1597" d="M20 0v238h127l318 1015h-139v238h946v-238h-133l311 -1015h127v-238h-637v238h141l-63 219h-455l-65 -219h151v-238h-629zM459 1614l164 319h354l164 -319h-219l-123 155l-121 -155h-219zM633 694h315l-155 531z" />
<glyph unicode="&#xc3;" horiz-adv-x="1597" d="M20 0v238h127l318 1015h-139v238h946v-238h-133l311 -1015h127v-238h-637v238h141l-63 219h-455l-65 -219h151v-238h-629zM479 1614q0 280 203 280q52 0 97.5 -20.5t78.5 -41t55 -20.5q54 0 58 74h147q0 -280 -205 -280q-52 0 -97 20.5t-78 41t-56 20.5q-51 0 -55 -74 h-148zM633 694h315l-155 531z" />
<glyph unicode="&#xc4;" horiz-adv-x="1597" d="M20 0v238h127l318 1015h-139v238h946v-238h-133l311 -1015h127v-238h-637v238h141l-63 219h-455l-65 -219h151v-238h-629zM467 1753q0 60 42.5 102.5t102.5 42.5t103 -42.5t43 -102.5t-43 -103t-103 -43t-102.5 43t-42.5 103zM633 694h315l-155 531zM840 1753 q0 60 42.5 102.5t102.5 42.5t103 -42.5t43 -102.5t-43 -103t-103 -43t-102.5 43t-42.5 103z" />
<glyph unicode="&#xc5;" horiz-adv-x="1597" d="M20 0v238h127l318 1015h-139v238h946v-238h-133l311 -1015h127v-238h-637v238h141l-63 219h-455l-65 -219h151v-238h-629zM526 1858q0 112 80 192t193 80t192.5 -80t79.5 -192q0 -113 -80 -193t-192 -80q-113 0 -193 80.5t-80 192.5zM633 694h315l-155 531zM698 1860 q0 -41 30 -71t71 -30t70.5 30t29.5 71t-29.5 70.5t-70.5 29.5t-71 -29.5t-30 -70.5z" />
<glyph unicode="&#xc6;" horiz-adv-x="2160" d="M20 0v238h127l529 1015h-137v238h1550v-465h-252v227h-473v-366h375v-230h-375v-419h473v247h252v-485h-1249v238h168v217h-392l-110 -217h168v-238h-654zM735 684h273v533z" />
<glyph unicode="&#xc7;" horiz-adv-x="1531" d="M41 752q0 220 97.5 396t271 275t389.5 99q235 0 430 -131v100h239v-617h-239v205q-140 185 -379 185q-107 0 -194 -40t-143 -109.5t-86 -162t-30 -200.5q0 -234 132 -378.5t356 -144.5q73 0 140.5 19t112 46.5t79 54.5t49.5 46l16 19l188 -189q-4 -5 -12.5 -14.5 t-37 -35.5t-61.5 -50.5t-86.5 -53.5t-110.5 -50.5t-135 -36.5t-159 -15l-43 -84q90 -10 147.5 -62t57.5 -142q0 -112 -91 -184t-241 -72q-56 0 -105.5 7.5t-70.5 15.5l-22 7l59 164q55 -18 123 -18q50 0 85.5 19.5t35.5 64.5q0 40 -40.5 59.5t-94.5 19.5q-19 0 -36.5 -1.5 t-25.5 -2.5l-8 -2l117 224q-139 22 -259.5 83t-214 156t-147 232t-53.5 299z" />
<glyph unicode="&#xc8;" horiz-adv-x="1351" d="M31 0v238h168v1015h-168v238h1249v-465h-252v227h-473v-366h375v-230h-375v-419h473v247h252v-485h-1249zM332 1933h324l139 -319h-213z" />
<glyph unicode="&#xc9;" horiz-adv-x="1351" d="M31 0v238h168v1015h-168v238h1249v-465h-252v227h-473v-366h375v-230h-375v-419h473v247h252v-485h-1249zM551 1614l139 319h324l-250 -319h-213z" />
<glyph unicode="&#xca;" horiz-adv-x="1351" d="M31 0v238h168v1015h-168v238h1249v-465h-252v227h-473v-366h375v-230h-375v-419h473v247h252v-485h-1249zM336 1614l164 319h354l164 -319h-219l-123 155l-121 -155h-219z" />
<glyph unicode="&#xcb;" horiz-adv-x="1351" d="M31 0v238h168v1015h-168v238h1249v-465h-252v227h-473v-366h375v-230h-375v-419h473v247h252v-485h-1249zM344 1753q0 60 42.5 102.5t102.5 42.5t103 -42.5t43 -102.5t-43 -102.5t-103 -42.5t-102.5 42.5t-42.5 102.5zM717 1753q0 60 42.5 102.5t102.5 42.5t103 -42.5 t43 -102.5t-43 -102.5t-103 -42.5t-102.5 42.5t-42.5 102.5z" />
<glyph unicode="&#xcc;" horiz-adv-x="753" d="M31 0v238h168v1015h-168v238h692v-238h-168v-1015h168v-238h-692zM33 1933h324l139 -319h-213z" />
<glyph unicode="&#xcd;" horiz-adv-x="753" d="M31 0v238h168v1015h-168v238h692v-238h-168v-1015h168v-238h-692zM274 1614l140 319h323l-250 -319h-213z" />
<glyph unicode="&#xce;" horiz-adv-x="753" d="M31 0v238h168v1015h-168v238h692v-238h-168v-1015h168v-238h-692zM37 1614l164 319h354l164 -319h-219l-123 155l-121 -155h-219z" />
<glyph unicode="&#xcf;" horiz-adv-x="753" d="M31 0v238h168v1015h-168v238h692v-238h-168v-1015h168v-238h-692zM45 1753q0 60 42.5 102.5t102.5 42.5t103 -42.5t43 -102.5t-43 -102.5t-103 -42.5t-102.5 42.5t-42.5 102.5zM418 1753q0 60 42.5 102.5t102.5 42.5t103 -42.5t43 -102.5t-43 -102.5t-103 -42.5 t-102.5 42.5t-42.5 102.5z" />
<glyph unicode="&#xd0;" horiz-adv-x="1554" d="M31 0v238h168v397h-168v229h168v389h-168v238h608q212 0 380.5 -55.5t276.5 -155.5t165 -236t57 -299t-57 -299t-165 -235.5t-276.5 -155t-380.5 -55.5h-608zM555 238h84q130 0 231 39.5t164 109.5t95 160.5t32 197.5t-32 197.5t-95 160.5t-164 110t-231 40h-84v-389h274 v-229h-274v-397z" />
<glyph unicode="&#xd1;" horiz-adv-x="1572" d="M31 0v238h168v1015h-168v238h610l418 -918v680h-148v238h631v-238h-168v-1253h-409l-451 987v-749h148v-238h-631zM467 1614q0 280 203 280q52 0 97.5 -20.5t78.5 -41t55 -20.5q53 0 57 74h148q0 -281 -205 -281q-52 0 -97 20.5t-78 41t-56 20.5q-52 0 -56 -73h-147z" />
<glyph unicode="&#xd2;" horiz-adv-x="1683" d="M41 745q0 230 105.5 408t287 273.5t408.5 95.5t408.5 -95.5t286.5 -273.5t105 -408q0 -173 -61 -319t-168 -245.5t-254.5 -155.5t-316.5 -56q-227 0 -408.5 95t-287 273t-105.5 408zM397 745q0 -233 125 -375.5t320 -142.5t319.5 142.5t124.5 375.5t-125 376t-319 143 q-195 0 -320 -143t-125 -376zM498 1933h324l139 -319h-213z" />
<glyph unicode="&#xd3;" horiz-adv-x="1683" d="M41 745q0 230 105.5 408t287 273.5t408.5 95.5t408.5 -95.5t286.5 -273.5t105 -408q0 -173 -61 -319t-168 -245.5t-254.5 -155.5t-316.5 -56q-227 0 -408.5 95t-287 273t-105.5 408zM397 745q0 -233 125 -375.5t320 -142.5t319.5 142.5t124.5 375.5t-125 376t-319 143 q-195 0 -320 -143t-125 -376zM739 1614l140 319h323l-250 -319h-213z" />
<glyph unicode="&#xd4;" horiz-adv-x="1683" d="M41 745q0 230 105.5 408t287 273.5t408.5 95.5t408.5 -95.5t286.5 -273.5t105 -408q0 -173 -61 -319t-168 -245.5t-254.5 -155.5t-316.5 -56q-227 0 -408.5 95t-287 273t-105.5 408zM397 745q0 -233 125 -375.5t320 -142.5t319.5 142.5t124.5 375.5t-125 376t-319 143 q-195 0 -320 -143t-125 -376zM502 1614l164 319h354l164 -319h-219l-123 155l-121 -155h-219z" />
<glyph unicode="&#xd5;" horiz-adv-x="1683" d="M41 745q0 230 105.5 408t287 273.5t408.5 95.5t408.5 -95.5t286.5 -273.5t105 -408q0 -173 -61 -319t-168 -245.5t-254.5 -155.5t-316.5 -56q-227 0 -408.5 95t-287 273t-105.5 408zM397 745q0 -233 125 -375.5t320 -142.5t319.5 142.5t124.5 375.5t-125 376t-319 143 q-195 0 -320 -143t-125 -376zM522 1614q0 280 203 280q52 0 97.5 -20.5t78.5 -41t55 -20.5q54 0 58 74h147q0 -280 -205 -280q-52 0 -97 20.5t-78 41t-56 20.5q-51 0 -55 -74h-148z" />
<glyph unicode="&#xd6;" horiz-adv-x="1683" d="M41 745q0 230 105.5 408t287 273.5t408.5 95.5t408.5 -95.5t286.5 -273.5t105 -408q0 -173 -61 -319t-168 -245.5t-254.5 -155.5t-316.5 -56q-227 0 -408.5 95t-287 273t-105.5 408zM397 745q0 -233 125 -375.5t320 -142.5t319.5 142.5t124.5 375.5t-125 376t-319 143 q-195 0 -320 -143t-125 -376zM510 1753q0 60 42.5 102.5t102.5 42.5t103 -42.5t43 -102.5t-43 -103t-103 -43t-102.5 43t-42.5 103zM883 1753q0 60 42.5 102.5t102.5 42.5t103 -42.5t43 -102.5t-43 -103t-103 -43t-102.5 43t-42.5 103z" />
<glyph unicode="&#xd7;" horiz-adv-x="909" d="M41 289l240 239l-240 240l174 174l240 -240l239 240l174 -174l-239 -240l239 -239l-174 -174l-239 239l-240 -239z" />
<glyph unicode="&#xd8;" horiz-adv-x="1683" d="M41 745q0 230 105.5 408t287 273.5t408.5 95.5q183 0 340 -66l116 166l209 -145l-108 -156q116 -103 179.5 -250.5t63.5 -325.5q0 -173 -61 -319t-168 -245.5t-254.5 -155.5t-316.5 -56q-184 0 -344 66l-115 -166l-209 145l109 156q-115 104 -178.5 250.5t-63.5 324.5z M397 745q0 -176 74 -305l549 785q-83 39 -178 39q-195 0 -320 -143t-125 -376zM659 266q79 -39 183 -39q195 0 319.5 142.5t124.5 375.5q0 172 -76 308z" />
<glyph unicode="&#xd9;" horiz-adv-x="1626" d="M27 1253v238h671v-238h-147v-755q0 -132 61.5 -201.5t200.5 -69.5t200.5 69.5t61.5 201.5v755h-147v238h671v-238h-167v-745q0 -92 -21 -171.5t-68.5 -148t-118.5 -116.5t-175.5 -75.5t-235.5 -27.5q-162 0 -283.5 41.5t-193.5 116t-106.5 170t-34.5 211.5v745h-168z M469 1933h324l139 -319h-213z" />
<glyph unicode="&#xda;" horiz-adv-x="1626" d="M27 1253v238h671v-238h-147v-755q0 -132 61.5 -201.5t200.5 -69.5t200.5 69.5t61.5 201.5v755h-147v238h671v-238h-167v-745q0 -92 -21 -171.5t-68.5 -148t-118.5 -116.5t-175.5 -75.5t-235.5 -27.5q-162 0 -283.5 41.5t-193.5 116t-106.5 170t-34.5 211.5v745h-168z M711 1614l139 319h324l-250 -319h-213z" />
<glyph unicode="&#xdb;" horiz-adv-x="1626" d="M27 1253v238h671v-238h-147v-755q0 -132 61.5 -201.5t200.5 -69.5t200.5 69.5t61.5 201.5v755h-147v238h671v-238h-167v-745q0 -92 -21 -171.5t-68.5 -148t-118.5 -116.5t-175.5 -75.5t-235.5 -27.5q-162 0 -283.5 41.5t-193.5 116t-106.5 170t-34.5 211.5v745h-168z M473 1614l164 319h354l164 -319h-219l-123 155l-121 -155h-219z" />
<glyph unicode="&#xdc;" horiz-adv-x="1626" d="M27 1253v238h671v-238h-147v-755q0 -132 61.5 -201.5t200.5 -69.5t200.5 69.5t61.5 201.5v755h-147v238h671v-238h-167v-745q0 -92 -21 -171.5t-68.5 -148t-118.5 -116.5t-175.5 -75.5t-235.5 -27.5q-162 0 -283.5 41.5t-193.5 116t-106.5 170t-34.5 211.5v745h-168z M481 1753q0 60 43 102.5t103 42.5t102.5 -42.5t42.5 -102.5t-42.5 -102.5t-102.5 -42.5t-103 42.5t-43 102.5zM854 1753q0 60 42.5 102.5t102.5 42.5t103 -42.5t43 -102.5t-43 -102.5t-103 -42.5t-102.5 42.5t-42.5 102.5z" />
<glyph unicode="&#xdd;" horiz-adv-x="1540" d="M16 1253v238h660v-238h-137l233 -405l240 405h-142v238h654v-238h-140l-436 -712v-303h168v-238h-692v238h168v292l-436 723h-140zM639 1614l139 319h324l-250 -319h-213z" />
<glyph unicode="&#xde;" horiz-adv-x="1308" d="M31 0v238h168v1015h-168v238h524v-184h98q138 0 247 -27t178.5 -72t115.5 -108t65 -129.5t19 -141.5q0 -74 -19 -140.5t-65 -129t-115.5 -108t-178.5 -72.5t-247 -27h-98v-114h184v-238h-708zM555 590h84q146 0 214.5 65t68.5 174t-68.5 174.5t-214.5 65.5h-84v-479z" />
<glyph unicode="&#xdf;" horiz-adv-x="1169" d="M20 0v217h134v799q0 241 132.5 370.5t350.5 129.5q184 0 303 -91.5t119 -248.5q0 -77 -32 -137t-77.5 -93.5t-90.5 -56.5t-77 -39t-32 -29q0 -14 30.5 -32t75.5 -37.5t98.5 -54.5t98.5 -78t75.5 -113.5t30.5 -155.5q0 -165 -115 -270t-294 -105q-71 0 -129.5 10.5 t-81.5 21.5l-23 11v211q56 -36 152 -36q70 0 118 39t48 110q0 51 -27.5 93.5t-71.5 73.5t-90.5 59t-93.5 65.5t-72 77.5v-711h-459zM479 897q15 30 49 58t71 49.5t72.5 45.5t58 56.5t22.5 71.5q0 52 -34.5 86t-90.5 34q-67 0 -107.5 -48.5t-40.5 -145.5v-207z" />
<glyph unicode="&#xe0;" d="M20 483q0 149 73 266.5t190.5 179.5t255.5 62q170 0 297 -82v58h325v-750h133v-217h-458v55q-125 -80 -297 -80q-138 0 -255.5 62t-190.5 179.5t-73 266.5zM262 1409h324l139 -319h-213zM346 483q0 -131 73 -210.5t183 -79.5q149 0 234 116v346q-82 119 -234 119 q-110 0 -183 -80t-73 -211z" />
<glyph unicode="&#xe1;" d="M20 483q0 149 73 266.5t190.5 179.5t255.5 62q170 0 297 -82v58h325v-750h133v-217h-458v55q-125 -80 -297 -80q-138 0 -255.5 62t-190.5 179.5t-73 266.5zM346 483q0 -131 73 -210.5t183 -79.5q149 0 234 116v346q-82 119 -234 119q-110 0 -183 -80t-73 -211zM487 1090 l140 319h323l-250 -319h-213z" />
<glyph unicode="&#xe2;" d="M20 483q0 149 73 266.5t190.5 179.5t255.5 62q170 0 297 -82v58h325v-750h133v-217h-458v55q-125 -80 -297 -80q-138 0 -255.5 62t-190.5 179.5t-73 266.5zM254 1090l164 319h354l164 -319h-219l-123 155l-121 -155h-219zM346 483q0 -131 73 -210.5t183 -79.5 q149 0 234 116v346q-82 119 -234 119q-110 0 -183 -80t-73 -211z" />
<glyph unicode="&#xe3;" d="M20 483q0 149 73 266.5t190.5 179.5t255.5 62q170 0 297 -82v58h325v-750h133v-217h-458v55q-125 -80 -297 -80q-138 0 -255.5 62t-190.5 179.5t-73 266.5zM283 1090q0 280 202 280q41 0 79 -13t61 -28t48.5 -28t43.5 -13q53 0 57 74h148q0 -281 -205 -281 q-52 0 -97.5 20.5t-78.5 41t-56 20.5q-51 0 -55 -73h-147zM346 483q0 -131 73 -210.5t183 -79.5q149 0 234 116v346q-82 119 -234 119q-110 0 -183 -80t-73 -211z" />
<glyph unicode="&#xe4;" d="M20 483q0 149 73 266.5t190.5 179.5t255.5 62q170 0 297 -82v58h325v-750h133v-217h-458v55q-125 -80 -297 -80q-138 0 -255.5 62t-190.5 179.5t-73 266.5zM264 1229q0 60 42.5 102.5t102.5 42.5t103 -42.5t43 -102.5t-43 -103t-103 -43t-102.5 43t-42.5 103zM346 483 q0 -131 73 -210.5t183 -79.5q149 0 234 116v346q-82 119 -234 119q-110 0 -183 -80t-73 -211zM637 1229q0 60 42.5 102.5t102.5 42.5t103 -42.5t43 -102.5t-43 -103t-103 -43t-102.5 43t-42.5 103z" />
<glyph unicode="&#xe5;" d="M20 483q0 149 73 266.5t190.5 179.5t255.5 62q170 0 297 -82v58h325v-750h133v-217h-458v55q-125 -80 -297 -80q-138 0 -255.5 62t-190.5 179.5t-73 266.5zM309 1333q0 113 80.5 193t192.5 80t192 -80t80 -193t-80 -192.5t-192 -79.5q-113 0 -193 80t-80 192zM346 483 q0 -131 73 -210.5t183 -79.5q149 0 234 116v346q-82 119 -234 119q-110 0 -183 -80t-73 -211zM481 1335q0 -41 30 -70.5t71 -29.5t70.5 29.5t29.5 70.5t-29.5 71t-70.5 30t-71 -30t-30 -71z" />
<glyph unicode="&#xe6;" horiz-adv-x="1841" d="M10 324q0 145 114 236t273 91q60 0 116.5 -10t95 -24.5t68.5 -29t44 -24.5l14 -10q-1 9 -4 24t-21.5 53t-47.5 67t-89.5 53t-140.5 24q-64 0 -125 -19t-90 -38l-29 -19l-118 168q6 5 16.5 13.5t48.5 30t81 38t113 30t144 13.5q115 0 225 -35.5t193 -103.5 q152 139 369 139q114 0 213.5 -35.5t175 -101.5t118.5 -168.5t43 -228.5q0 -7 -1 -21.5t-1 -21.5h-749q18 -103 88 -163.5t186 -60.5q43 0 84 12.5t70 31t51.5 36.5t33.5 30l11 13l152 -163q-6 -7 -17.5 -19t-51.5 -42t-85 -53t-116.5 -42t-147.5 -19q-261 0 -426 142 q-172 -142 -416 -142q-219 0 -342 93.5t-123 255.5zM319 322q0 -66 47 -99t119 -33q51 0 94 16.5t67.5 39.5t42 46t23.5 40l7 16q-3 4 -9 10t-27.5 22t-46 28t-63.5 22t-81 10q-82 0 -127.5 -31.5t-45.5 -86.5zM1069 598h426q-23 85 -79.5 130.5t-135.5 45.5 q-81 0 -135.5 -47.5t-75.5 -128.5z" />
<glyph unicode="&#xe7;" horiz-adv-x="1044" d="M20 492q0 133 60.5 246t175 183t258.5 70q151 0 274 -86v62h220v-392h-220v72q-28 59 -82 93t-122 34q-110 0 -174 -83.5t-64 -205.5q0 -128 73.5 -211.5t203.5 -83.5q44 0 86 12.5t70 31t49.5 36.5t31.5 30l10 13l154 -163q-6 -7 -17 -18t-50.5 -40.5t-84 -52 t-116 -42.5t-148.5 -22l-45 -90q90 -10 147.5 -62t57.5 -142q0 -112 -91 -184t-241 -72q-56 0 -105.5 7.5t-70.5 15.5l-22 7l59 164q55 -18 123 -18q50 0 85.5 19.5t35.5 64.5q0 40 -40.5 59.5t-94.5 19.5q-19 0 -36.5 -1.5t-25.5 -2.5l-8 -2l119 230q-198 34 -316.5 163.5 t-118.5 340.5z" />
<glyph unicode="&#xe8;" horiz-adv-x="1140" d="M31 492q0 98 39 188.5t107 159.5t168 110t214 41t214 -35.5t175 -101.5t118.5 -168.5t43.5 -228.5q0 -7 -1 -21.5t-1 -21.5h-750q18 -103 88.5 -163.5t186.5 -60.5q43 0 84 12.5t70 31t51.5 36.5t33.5 30l11 13l151 -163q-6 -7 -17.5 -19t-51.5 -42t-85 -53t-116.5 -42 t-147.5 -19q-117 0 -221 32.5t-186 95t-130 163t-48 226.5zM236 1409h324l139 -319h-213zM369 598h426q-23 85 -79.5 130.5t-135.5 45.5q-81 0 -135.5 -47.5t-75.5 -128.5z" />
<glyph unicode="&#xe9;" horiz-adv-x="1140" d="M31 492q0 98 39 188.5t107 159.5t168 110t214 41t214 -35.5t175 -101.5t118.5 -168.5t43.5 -228.5q0 -7 -1 -21.5t-1 -21.5h-750q18 -103 88.5 -163.5t186.5 -60.5q43 0 84 12.5t70 31t51.5 36.5t33.5 30l11 13l151 -163q-6 -7 -17.5 -19t-51.5 -42t-85 -53t-116.5 -42 t-147.5 -19q-117 0 -221 32.5t-186 95t-130 163t-48 226.5zM369 598h426q-23 85 -79.5 130.5t-135.5 45.5q-81 0 -135.5 -47.5t-75.5 -128.5zM440 1090l140 319h323l-250 -319h-213z" />
<glyph unicode="&#xea;" horiz-adv-x="1140" d="M31 492q0 98 39 188.5t107 159.5t168 110t214 41t214 -35.5t175 -101.5t118.5 -168.5t43.5 -228.5q0 -7 -1 -21.5t-1 -21.5h-750q18 -103 88.5 -163.5t186.5 -60.5q43 0 84 12.5t70 31t51.5 36.5t33.5 30l11 13l151 -163q-6 -7 -17.5 -19t-51.5 -42t-85 -53t-116.5 -42 t-147.5 -19q-117 0 -221 32.5t-186 95t-130 163t-48 226.5zM229 1090l164 319h354l164 -319h-219l-123 155l-121 -155h-219zM369 598h426q-23 85 -79.5 130.5t-135.5 45.5q-81 0 -135.5 -47.5t-75.5 -128.5z" />
<glyph unicode="&#xeb;" horiz-adv-x="1140" d="M31 492q0 98 39 188.5t107 159.5t168 110t214 41t214 -35.5t175 -101.5t118.5 -168.5t43.5 -228.5q0 -7 -1 -21.5t-1 -21.5h-750q18 -103 88.5 -163.5t186.5 -60.5q43 0 84 12.5t70 31t51.5 36.5t33.5 30l11 13l151 -163q-6 -7 -17.5 -19t-51.5 -42t-85 -53t-116.5 -42 t-147.5 -19q-117 0 -221 32.5t-186 95t-130 163t-48 226.5zM238 1229q0 60 42.5 102.5t102.5 42.5t102.5 -42.5t42.5 -102.5t-42.5 -103t-102.5 -43t-102.5 43t-42.5 103zM369 598h426q-23 85 -79.5 130.5t-135.5 45.5q-81 0 -135.5 -47.5t-75.5 -128.5zM610 1229 q0 60 43 102.5t103 42.5t102.5 -42.5t42.5 -102.5t-42.5 -103t-102.5 -43t-103 43t-43 103z" />
<glyph unicode="&#xec;" horiz-adv-x="632" d="M-18 1409h324l139 -319h-213zM20 0v217h134v533h-134v217h459v-750h133v-217h-592z" />
<glyph unicode="&#xed;" horiz-adv-x="632" d="M20 0v217h134v533h-134v217h459v-750h133v-217h-592zM174 1090l139 319h324l-250 -319h-213z" />
<glyph unicode="&#xee;" horiz-adv-x="632" d="M-57 1090l164 319h354l164 -319h-219l-123 155l-121 -155h-219zM20 0v217h134v533h-134v217h459v-750h133v-217h-592z" />
<glyph unicode="&#xef;" horiz-adv-x="632" d="M-61 1229q0 60 42.5 102.5t102.5 42.5t102.5 -42.5t42.5 -102.5t-42.5 -103t-102.5 -43t-102.5 43t-42.5 103zM20 0v217h134v533h-134v217h459v-750h133v-217h-592zM311 1229q0 60 43 102.5t103 42.5t102.5 -42.5t42.5 -102.5t-42.5 -103t-102.5 -43t-103 43t-43 103z " />
<glyph unicode="&#xf0;" horiz-adv-x="1167" d="M20 483q0 103 37 194t106 161.5t178 111.5t243 41q40 0 110 -8q-44 74 -92 127l-74 -80l-145 137l78 84l-84 70l155 176q59 -34 97 -63l86 92l145 -137l-78 -86q169 -169 267 -378.5t98 -441.5q0 -103 -36.5 -194t-105.5 -161.5t-178 -111.5t-243 -41t-243 41t-178 111.5 t-106 161.5t-37 194zM346 483q0 -132 63.5 -211t174.5 -79t174 79t63 211t-63 211.5t-174 79.5t-174.5 -79.5t-63.5 -211.5z" />
<glyph unicode="&#xf1;" horiz-adv-x="1259" d="M20 0v217h134v533h-134v217h459v-95q4 5 12 13t36 28.5t59 36t80.5 28.5t101.5 13q150 0 246 -90.5t96 -247.5v-436h133v-217h-571v217h112v408q0 65 -33.5 107t-97.5 42q-34 0 -64.5 -13t-49.5 -32t-33.5 -37.5t-20.5 -31.5l-6 -13v-430h113v-217h-572zM301 1090 q0 280 203 280q52 0 97.5 -20.5t78.5 -41t55 -20.5q53 0 57 74h148q0 -281 -205 -281q-52 0 -97 20.5t-78 41t-56 20.5q-52 0 -56 -73h-147z" />
<glyph unicode="&#xf2;" horiz-adv-x="1167" d="M20 483q0 103 37 194t106 161.5t178 111.5t243 41t243 -41t178 -111.5t105.5 -161.5t36.5 -194t-36.5 -194t-105.5 -161.5t-178 -111.5t-243 -41t-243 41t-178 111.5t-106 161.5t-37 194zM250 1409h324l139 -319h-213zM346 483q0 -132 63.5 -211t174.5 -79t174 79t63 211 t-63 211.5t-174 79.5t-174.5 -79.5t-63.5 -211.5z" />
<glyph unicode="&#xf3;" horiz-adv-x="1167" d="M20 483q0 103 37 194t106 161.5t178 111.5t243 41t243 -41t178 -111.5t105.5 -161.5t36.5 -194t-36.5 -194t-105.5 -161.5t-178 -111.5t-243 -41t-243 41t-178 111.5t-106 161.5t-37 194zM346 483q0 -132 63.5 -211t174.5 -79t174 79t63 211t-63 211.5t-174 79.5 t-174.5 -79.5t-63.5 -211.5zM455 1090l139 319h324l-250 -319h-213z" />
<glyph unicode="&#xf4;" horiz-adv-x="1167" d="M20 483q0 103 37 194t106 161.5t178 111.5t243 41t243 -41t178 -111.5t105.5 -161.5t36.5 -194t-36.5 -194t-105.5 -161.5t-178 -111.5t-243 -41t-243 41t-178 111.5t-106 161.5t-37 194zM242 1090l164 319h354l164 -319h-219l-123 155l-121 -155h-219zM346 483 q0 -132 63.5 -211t174.5 -79t174 79t63 211t-63 211.5t-174 79.5t-174.5 -79.5t-63.5 -211.5z" />
<glyph unicode="&#xf5;" horiz-adv-x="1167" d="M20 483q0 103 37 194t106 161.5t178 111.5t243 41t243 -41t178 -111.5t105.5 -161.5t36.5 -194t-36.5 -194t-105.5 -161.5t-178 -111.5t-243 -41t-243 41t-178 111.5t-106 161.5t-37 194zM264 1090q0 280 203 280q52 0 97.5 -20.5t78.5 -41t55 -20.5q54 0 58 74h147 q0 -281 -205 -281q-52 0 -97 20.5t-78 41t-56 20.5q-51 0 -55 -73h-148zM346 483q0 -132 63.5 -211t174.5 -79t174 79t63 211t-63 211.5t-174 79.5t-174.5 -79.5t-63.5 -211.5z" />
<glyph unicode="&#xf6;" horiz-adv-x="1167" d="M20 483q0 103 37 194t106 161.5t178 111.5t243 41t243 -41t178 -111.5t105.5 -161.5t36.5 -194t-36.5 -194t-105.5 -161.5t-178 -111.5t-243 -41t-243 41t-178 111.5t-106 161.5t-37 194zM252 1229q0 60 42.5 102.5t102.5 42.5t103 -42.5t43 -102.5t-43 -103t-103 -43 t-102.5 43t-42.5 103zM346 483q0 -132 63.5 -211t174.5 -79t174 79t63 211t-63 211.5t-174 79.5t-174.5 -79.5t-63.5 -211.5zM625 1229q0 60 42.5 102.5t102.5 42.5t103 -42.5t43 -102.5t-43 -103t-103 -43t-102.5 43t-42.5 103z" />
<glyph unicode="&#xf7;" horiz-adv-x="946" d="M41 406v245h864v-245h-864zM340 221q0 55 39 94t94 39t94 -39t39 -94t-39 -94t-94 -39t-94 39t-39 94zM340 836q0 56 39 94.5t94 38.5t94 -38.5t39 -94.5t-39 -95t-94 -39t-94 39t-39 95z" />
<glyph unicode="&#xf8;" horiz-adv-x="1167" d="M20 483q0 103 37 194t106 161.5t178 111.5t243 41q121 0 227 -37l88 117l166 -123l-74 -98q76 -70 116 -165t40 -202q0 -103 -36.5 -194t-105.5 -161.5t-178 -111.5t-243 -41q-112 0 -228 35l-88 -116l-166 122l74 99q-156 144 -156 368zM346 483q0 -64 16 -123l302 400 q-44 14 -80 14q-111 0 -174.5 -79.5t-63.5 -211.5zM502 205q38 -12 82 -12q111 0 174 79t63 211q0 65 -18 121z" />
<glyph unicode="&#xf9;" horiz-adv-x="1259" d="M16 750v217h459v-625q0 -65 33.5 -107t97.5 -42q34 0 64.5 13t49.5 31.5t33.5 37t20.5 31.5l6 13v431h-112v217h438v-748h133v-219h-459v94q-4 -5 -12 -13t-35.5 -28.5t-58.5 -36t-80.5 -28.5t-101.5 -13q-150 0 -246 90.5t-96 247.5v437h-134zM254 1409h324l139 -319 h-213z" />
<glyph unicode="&#xfa;" horiz-adv-x="1259" d="M16 750v217h459v-625q0 -65 33.5 -107t97.5 -42q34 0 64.5 13t49.5 31.5t33.5 37t20.5 31.5l6 13v431h-112v217h438v-748h133v-219h-459v94q-4 -5 -12 -13t-35.5 -28.5t-58.5 -36t-80.5 -28.5t-101.5 -13q-150 0 -246 90.5t-96 247.5v437h-134zM430 1090l139 319h324 l-250 -319h-213z" />
<glyph unicode="&#xfb;" horiz-adv-x="1259" d="M16 750v217h459v-625q0 -65 33.5 -107t97.5 -42q34 0 64.5 13t49.5 31.5t33.5 37t20.5 31.5l6 13v431h-112v217h438v-748h133v-219h-459v94q-4 -5 -12 -13t-35.5 -28.5t-58.5 -36t-80.5 -28.5t-101.5 -13q-150 0 -246 90.5t-96 247.5v437h-134zM248 1090l164 319h354 l164 -319h-219l-123 155l-121 -155h-219z" />
<glyph unicode="&#xfc;" horiz-adv-x="1259" d="M16 750v217h459v-625q0 -65 33.5 -107t97.5 -42q34 0 64.5 13t49.5 31.5t33.5 37t20.5 31.5l6 13v431h-112v217h438v-748h133v-219h-459v94q-4 -5 -12 -13t-35.5 -28.5t-58.5 -36t-80.5 -28.5t-101.5 -13q-150 0 -246 90.5t-96 247.5v437h-134zM256 1229q0 60 42.5 102.5 t102.5 42.5t103 -42.5t43 -102.5t-43 -103t-103 -43t-102.5 43t-42.5 103zM629 1229q0 60 42.5 102.5t102.5 42.5t103 -42.5t43 -102.5t-43 -103t-103 -43t-102.5 43t-42.5 103z" />
<glyph unicode="&#xfd;" horiz-adv-x="1208" d="M16 750v217h523v-217h-93l158 -367l172 367h-92v217h508v-217h-105l-413 -887h110v-217h-536v217h112l82 174l-321 713h-105zM475 1090l139 319h324l-250 -319h-213z" />
<glyph unicode="&#xfe;" d="M20 -137h134v1411h-134v217h459v-578q131 78 293 78q138 0 256.5 -62t192 -179.5t73.5 -266.5t-73.5 -266.5t-192 -179.5t-256.5 -62q-169 0 -293 76v-188h133v-217h-592v217zM479 309q80 -116 234 -116q110 0 183 79.5t73 210.5t-73 211t-183 80q-152 0 -234 -119v-346z " />
<glyph unicode="&#xff;" horiz-adv-x="1208" d="M16 750v217h523v-217h-93l158 -367l172 367h-92v217h508v-217h-105l-413 -887h110v-217h-536v217h112l82 174l-321 713h-105zM272 1229q0 60 43 102.5t103 42.5t102.5 -42.5t42.5 -102.5t-42.5 -103t-102.5 -43t-103 43t-43 103zM645 1229q0 60 43 102.5t103 42.5 t102.5 -42.5t42.5 -102.5t-42.5 -103t-102.5 -43t-103 43t-43 103z" />
<glyph unicode="&#x152;" horiz-adv-x="2439" d="M41 745q0 230 105.5 408t287 273.5t408.5 95.5q248 0 444 -117v86h1081v-465h-251v227h-474v-366h375v-230h-375v-419h474v247h251v-485h-1081v84q-197 -115 -444 -115q-227 0 -408.5 95t-287 273t-105.5 408zM397 745q0 -233 125 -375.5t320 -142.5t319.5 142.5 t124.5 375.5t-125 376t-319 143q-195 0 -320 -143t-125 -376z" />
<glyph unicode="&#x153;" horiz-adv-x="1941" d="M31 483q0 103 36.5 194t105.5 161.5t178 111.5t243 41q246 0 401 -135q151 135 365 135q114 0 214 -35.5t175 -101.5t118.5 -168.5t43.5 -228.5q0 -7 -1 -21.5t-1 -21.5h-750q18 -103 88.5 -163.5t186.5 -60.5q43 0 84 12.5t69.5 31t51 36.5t33.5 30l11 13l152 -163 q-6 -7 -17.5 -19t-51.5 -42t-85 -53t-116.5 -42t-147.5 -19q-257 0 -420 138q-154 -138 -403 -138q-134 0 -243 41t-178 111.5t-105.5 161.5t-36.5 194zM356 483q0 -132 63.5 -211t174.5 -79t174 79t63 211t-63 211.5t-174 79.5t-174.5 -79.5t-63.5 -211.5zM1169 598h426 q-23 85 -79.5 130.5t-135.5 45.5q-81 0 -135.5 -47.5t-75.5 -128.5z" />
<glyph unicode="&#x178;" horiz-adv-x="1507" d="M0 1253v238h659v-238h-137l234 -405l239 405h-141v238h653v-238h-139l-436 -712v-303h168v-238h-692v238h167v292l-436 723h-139zM422 1753q0 60 42.5 102.5t102.5 42.5t103 -42.5t43 -102.5t-43 -102.5t-103 -42.5t-102.5 42.5t-42.5 102.5zM795 1753q0 60 42.5 102.5 t102.5 42.5t102.5 -42.5t42.5 -102.5t-42.5 -102.5t-102.5 -42.5t-102.5 42.5t-42.5 102.5z" />
<glyph unicode="&#x2c6;" horiz-adv-x="763" d="M41 1090l164 319h354l164 -319h-219l-123 155l-121 -155h-219z" />
<glyph unicode="&#x2dc;" horiz-adv-x="720" d="M41 1090q0 280 203 280q52 0 97.5 -20.5t78.5 -41t55 -20.5q53 0 57 74h148q0 -281 -205 -281q-52 0 -97 20.5t-78 41t-56 20.5q-52 0 -56 -73h-147z" />
<glyph unicode="&#x2000;" horiz-adv-x="1065" />
<glyph unicode="&#x2001;" horiz-adv-x="2130" />
<glyph unicode="&#x2002;" horiz-adv-x="1065" />
<glyph unicode="&#x2003;" horiz-adv-x="2130" />
<glyph unicode="&#x2004;" horiz-adv-x="710" />
<glyph unicode="&#x2005;" horiz-adv-x="532" />
<glyph unicode="&#x2006;" horiz-adv-x="355" />
<glyph unicode="&#x2007;" horiz-adv-x="355" />
<glyph unicode="&#x2008;" horiz-adv-x="266" />
<glyph unicode="&#x2009;" horiz-adv-x="426" />
<glyph unicode="&#x200a;" horiz-adv-x="118" />
<glyph unicode="&#x2010;" horiz-adv-x="835" d="M92 422v244h651v-244h-651z" />
<glyph unicode="&#x2011;" horiz-adv-x="835" d="M92 422v244h651v-244h-651z" />
<glyph unicode="&#x2012;" horiz-adv-x="835" d="M92 422v244h651v-244h-651z" />
<glyph unicode="&#x2013;" horiz-adv-x="1335" d="M113 426v236h1110v-236h-1110z" />
<glyph unicode="&#x2014;" horiz-adv-x="1933" d="M113 426v236h1708v-236h-1708z" />
<glyph unicode="&#x2018;" horiz-adv-x="458" d="M92 952v283l160 256h125l-152 -256h142v-283h-275z" />
<glyph unicode="&#x2019;" horiz-adv-x="458" d="M82 952l151 256h-141v283h275v-283l-160 -256h-125z" />
<glyph unicode="&#x201a;" horiz-adv-x="458" d="M82 -256l151 256h-141v283h275v-283l-160 -256h-125z" />
<glyph unicode="&#x201c;" horiz-adv-x="827" d="M92 952v283l160 256h125l-152 -256h142v-283h-275zM461 952v283l160 256h124l-151 -256h141v-283h-274z" />
<glyph unicode="&#x201d;" horiz-adv-x="827" d="M82 952l151 256h-141v283h275v-283l-160 -256h-125zM451 952l151 256h-141v283h274v-283l-160 -256h-124z" />
<glyph unicode="&#x201e;" horiz-adv-x="827" d="M82 -256l151 256h-141v283h275v-283l-160 -256h-125zM451 -256l151 256h-141v283h274v-283l-160 -256h-124z" />
<glyph unicode="&#x2022;" horiz-adv-x="503" d="M41 735q0 88 61.5 149.5t149.5 61.5t149.5 -61.5t61.5 -149.5t-61.5 -149.5t-149.5 -61.5t-149.5 61.5t-61.5 149.5z" />
<glyph unicode="&#x2026;" horiz-adv-x="1449" d="M113 0v283h274v-283h-274zM588 0v283h274v-283h-274zM1063 0v283h274v-283h-274z" />
<glyph unicode="&#x202f;" horiz-adv-x="426" />
<glyph unicode="&#x2039;" horiz-adv-x="606" d="M51 387l242 387h262l-225 -387l225 -387h-262z" />
<glyph unicode="&#x203a;" horiz-adv-x="606" d="M51 0l225 387l-225 387h262l242 -387l-242 -387h-262z" />
<glyph unicode="&#x205f;" horiz-adv-x="532" />
<glyph unicode="&#x20ac;" horiz-adv-x="1155" d="M-82 618q6 40 20.5 118.5t20.5 113.5h80q11 162 59 291t122 211.5t168.5 126t201.5 43.5q173 0 289 -107v76h233v-516h-256q-21 153 -79 231t-146 78q-104 0 -165 -108.5t-73 -325.5h387l-41 -232h-344q13 -206 74 -308.5t162 -102.5q81 0 138 67t81 199h274 q-32 -238 -166 -371t-337 -133q-238 0 -395.5 168.5t-186.5 480.5h-121z" />
<glyph unicode="&#x2122;" horiz-adv-x="1607" d="M31 1255v236h583v-236h-129v111h-73v-440h94v-123h-365v123h92v440h-73v-111h-129zM688 803v123h76v440h-76v125h340l105 -328l104 328h340v-125h-76v-440h76v-123h-311v123h75v370l-137 -419h-145l-137 419v-370h75v-123h-309z" />
<glyph unicode="&#x25fc;" horiz-adv-x="962" d="M0 0v963h963v-963h-963z" />
</font>
</defs>
</svg>
