<?xml version="1.0" standalone="no"?>
<!DOCTYPE svg PUBLIC "-//W3C//DTD SVG 1.1//EN" "http://www.w3.org/Graphics/SVG/1.1/DTD/svg11.dtd" >
<svg xmlns="http://www.w3.org/2000/svg">
<metadata></metadata>
<defs>
<font id="karnak_pro_bookbook" horiz-adv-x="1288" >
<font-face units-per-em="2048" ascent="1536" descent="-512" />
<missing-glyph horiz-adv-x="593" />
<glyph unicode="&#xfb01;" horiz-adv-x="1232" d="M41 0v133h176v701h-176v133h176v200q0 150 71.5 237t225.5 87l61 -4v-144q-22 5 -40 5q-146 0 -146 -181v-200h186v-133h-186v-701h186v-133h-534zM668 0v133h176v701h-176v133h348v-834h176v-133h-524zM772 1372q0 50 35 84.5t84 34.5t84 -34.5t35 -84.5t-35 -84.5 t-84 -34.5t-84 34.5t-35 84.5z" />
<glyph unicode="&#xfb02;" horiz-adv-x="1222" d="M41 0v133h176v701h-176v133h176v200q0 150 71.5 237t225.5 87l61 -4v-144q-22 5 -40 5q-146 0 -146 -181v-200h186v-133h-186v-701h186v-133h-534zM657 0v133h177v1225h-177v133h349v-1358h176v-133h-525z" />
<glyph horiz-adv-x="0" />
<glyph horiz-adv-x="0" />
<glyph horiz-adv-x="682" />
<glyph unicode="&#xd;" horiz-adv-x="593" />
<glyph unicode=" "  horiz-adv-x="593" />
<glyph unicode="&#x09;" horiz-adv-x="593" />
<glyph unicode="&#xa0;" horiz-adv-x="593" />
<glyph unicode="!" horiz-adv-x="442" d="M123 1491h196l-24 -1122h-148zM127 0v209h188v-209h-188z" />
<glyph unicode="&#x22;" horiz-adv-x="671" d="M31 1075l102 416h168l-123 -416h-147zM350 1075l103 416h168l-123 -416h-148z" />
<glyph unicode="#" horiz-adv-x="999" d="M-10 666l24 141h195l51 289h-194l24 141h195l45 254h141l-45 -254h207l45 254h141l-45 -254h195l-25 -141h-194l-52 -289h195l-25 -141h-194l-45 -254h-142l45 254h-206l-45 -254h-142l45 254h-194zM350 807h207l51 289h-207z" />
<glyph unicode="$" horiz-adv-x="1148" d="M82 0v500h166q2 -129 73 -226t195 -129v553q-70 21 -125.5 44t-112.5 60t-94.5 81t-61.5 108.5t-24 141.5q0 162 119 275.5t299 113.5v153h111v-166q45 -10 85.5 -28.5t65.5 -37.5t43.5 -36t26.5 -28l8 -11v123h160v-459h-166q-1 115 -60.5 197.5t-162.5 111.5v-495 q79 -25 139 -50t121.5 -64t100.5 -86t64 -114t25 -149q0 -182 -119 -298t-319 -116h-12v-159h-111v174q-52 11 -99.5 32t-78 42.5t-53.5 42t-33 33.5l-10 13v-147h-160zM274 1135q0 -103 63 -160t179 -96v479q-104 0 -173 -62t-69 -161zM627 133q123 1 196.5 72t73.5 178 q0 100 -62.5 168.5t-207.5 114.5v-533z" />
<glyph unicode="%" horiz-adv-x="1355" d="M72 1108q0 181 72.5 290t191.5 109t191.5 -109t72.5 -290t-72.5 -290t-191.5 -109t-191.5 109t-72.5 290zM182 1108q0 -136 41 -215.5t113 -79.5t112.5 79.5t40.5 215.5t-40.5 215.5t-112.5 79.5t-113 -79.5t-41 -215.5zM287 0l667 1491h115l-668 -1491h-114zM756 383 q0 181 72.5 290t191.5 109t191.5 -109t72.5 -290t-72.5 -290t-191.5 -109t-191.5 109t-72.5 290zM866 383q0 -136 41 -215.5t113 -79.5t113 79.5t41 215.5t-41 215.5t-113 79.5t-113 -79.5t-41 -215.5z" />
<glyph unicode="&#x26;" horiz-adv-x="1497" d="M61 438q0 88 23.5 161t68.5 127.5t92.5 92.5t112.5 76q-133 155 -133 311q0 145 96 230.5t238 85.5q141 0 230.5 -87.5t89.5 -228.5q0 -62 -19 -114t-57 -93.5t-77.5 -71.5t-96.5 -63l395 -422q57 145 57 314h344v-148h-184q-12 -154 -92 -299l151 -162h156v-147h-264 l-152 162q-186 -193 -452 -193q-101 0 -195 32t-168 90.5t-119 148.5t-45 198zM238 444q0 -133 94.5 -220t255.5 -87q209 0 338 148l-457 489q-52 -32 -89.5 -61.5t-72 -69.5t-52 -90t-17.5 -109zM401 1208q0 -98 117 -225q92 52 140.5 103t48.5 122q0 65 -41.5 106.5 t-108.5 41.5q-68 0 -112 -42t-44 -106z" />
<glyph unicode="'" horiz-adv-x="352" d="M31 1075l102 416h168l-123 -416h-147z" />
<glyph unicode="(" horiz-adv-x="595" d="M82 741q0 125 18 244.5t47.5 210t64.5 171t70 136t64.5 96t47.5 59.5l18 19h184q-14 -15 -36.5 -44t-81 -123.5t-103 -197t-81 -258.5t-36.5 -313q0 -114 18.5 -227.5t48.5 -203.5t66 -172.5t72 -141.5t66 -103t49 -66l18 -22h-184q-7 7 -19 20t-46 58.5t-65.5 97 t-69.5 134.5t-65 172t-46 209t-19 245z" />
<glyph unicode=")" horiz-adv-x="595" d="M0 -195q14 15 36.5 44t81 123.5t103 197t81 258.5t36.5 313q0 114 -18.5 227.5t-48.5 203.5t-66 172.5t-72 141.5t-66 103t-49 66l-18 22h184q7 -7 19 -20t46 -58.5t65.5 -97t69.5 -134.5t65 -172t46 -209t19 -245t-18 -244.5t-47.5 -210t-64.5 -171t-70 -136t-64.5 -96 t-47.5 -59.5l-18 -19h-184z" />
<glyph unicode="*" horiz-adv-x="729" d="M82 1071l209 92l-209 94l80 140l186 -135l-22 229h159l-22 -227l186 133l80 -140l-209 -94l209 -92l-80 -139l-186 133l22 -227h-159l22 227l-186 -133z" />
<glyph unicode="+" horiz-adv-x="1036" d="M82 430v152h358v360h156v-360h358v-152h-358v-360h-156v360h-358z" />
<glyph unicode="," horiz-adv-x="352" d="M80 -209l123 209h-121v209h188v-209l-123 -209h-67z" />
<glyph unicode="-" horiz-adv-x="757" d="M113 453v172h532v-172h-532z" />
<glyph unicode="." horiz-adv-x="352" d="M82 0v209h188v-209h-188z" />
<glyph unicode="/" horiz-adv-x="856" d="M20 -33l656 1557h160l-656 -1557h-160z" />
<glyph unicode="0" horiz-adv-x="1159" d="M72 745q0 352 139.5 564.5t368.5 212.5t368 -212t139 -565t-139 -564.5t-368 -211.5t-368.5 212t-139.5 564zM252 745q0 -282 87 -445t241 -163t240.5 163t86.5 445t-86.5 445.5t-240.5 163.5t-241 -163.5t-87 -445.5z" />
<glyph unicode="1" horiz-adv-x="704" d="M51 0v137h211v1145q-103 -35 -211 -35v137q53 0 98 11t70.5 27t44 31.5t24.5 26.5l7 11h147v-1354h211v-137h-602z" />
<glyph unicode="2" horiz-adv-x="1132" d="M72 911v162q0 211 128.5 330t336.5 119q104 0 192.5 -33t148 -89t93 -131t33.5 -159q0 -111 -42.5 -200.5t-148.5 -209.5l-481 -542h559v270h180v-428h-997v137l639 711q110 127 110 262q0 108 -80.5 176t-207.5 68q-122 0 -202.5 -66.5t-80.5 -193.5v-45h174v-138h-354z " />
<glyph unicode="3" horiz-adv-x="1124" d="M72 424h180q0 -137 87.5 -212t231.5 -75q126 0 208.5 77t82.5 200q0 51 -15 95t-48 84t-96 63.5t-150 23.5v131q140 6 210.5 85.5t70.5 190.5q0 128 -87 207.5t-217 79.5q-51 0 -100 -15.5t-91 -46.5t-67.5 -85t-25.5 -123h160v-137h-328v100q0 210 130 332.5t337 122.5 q205 0 335 -117t130 -299q0 -97 -49.5 -190.5t-155.5 -147.5q117 -44 177 -143t60 -211q0 -209 -134 -327t-343 -118q-135 0 -245.5 51.5t-179 156.5t-68.5 247z" />
<glyph unicode="4" horiz-adv-x="1040" d="M-20 389v154l632 948h164v-944h213v-158h-213v-252h211v-137h-614v137h223v252h-616zM158 547h438v655z" />
<glyph unicode="5" horiz-adv-x="1124" d="M72 403h180q1 -6 2.5 -15.5t9.5 -37t20.5 -52.5t37.5 -56t56 -53t80.5 -37t108.5 -15q143 0 229.5 92.5t86.5 268.5t-86.5 273t-227.5 97q-56 0 -105.5 -16.5t-79.5 -39.5t-52.5 -46.5t-31.5 -39.5l-9 -17h-174v782h827v-158h-647v-397q131 90 283 90q147 0 258 -69 t168 -188t57 -271q0 -231 -136 -380t-362 -149q-97 0 -176 24t-129 62t-87.5 84.5t-56 93t-29.5 84.5t-13 62z" />
<glyph unicode="6" horiz-adv-x="1118" d="M72 700q0 78 5 150.5t19.5 157t38 156t63 139t91.5 115t127 76t166 28.5q77 0 141.5 -21t106.5 -55t75 -74.5t51 -81.5t29.5 -75t14.5 -55l4 -21h-181q-1 5 -2 13t-8.5 31.5t-17.5 44.5t-30 47t-45 44.5t-63 31.5t-84 13q-64 0 -115.5 -23t-85.5 -64.5t-58.5 -93.5 t-37.5 -116t-18.5 -124.5t-5.5 -127.5q0 -2 6 5.5t20 23t33 34.5t48 39t62 36.5t78.5 27t94.5 10.5q144 0 250.5 -70t159.5 -187t53 -263q0 -213 -125 -357.5t-336 -144.5q-114 0 -204.5 39t-149.5 106t-98 161t-55.5 199t-16.5 226zM279 489q0 -156 77 -259t222 -103 t222 103t77 259q0 100 -31.5 178.5t-100.5 127.5t-167 49t-167 -49t-100.5 -127.5t-31.5 -178.5z" />
<glyph unicode="7" horiz-adv-x="1140" d="M82 1040v451h1008v-137l-732 -1354h-211l732 1333h-627v-293h-170z" />
<glyph unicode="8" horiz-adv-x="1105" d="M61 414q0 149 69 249.5t194 145.5q-112 45 -171 132t-59 198q0 92 38 166.5t102.5 121t146 71t172.5 24.5t172.5 -24.5t146 -71t102.5 -121t38 -166.5q0 -111 -60 -198t-172 -132q125 -45 194.5 -145.5t69.5 -249.5q0 -192 -138 -318.5t-353 -126.5t-353.5 126.5 t-138.5 318.5zM242 432q0 -146 88.5 -225.5t222.5 -79.5t222.5 79.5t88.5 225.5q0 129 -91 216t-220 87t-220 -87t-91 -216zM270 1124q0 -102 74.5 -170.5t208.5 -68.5t208.5 68.5t74.5 170.5t-74.5 171t-208.5 69t-208.5 -69t-74.5 -171z" />
<glyph unicode="9" horiz-adv-x="1118" d="M61 1020q0 213 125 357.5t336 144.5q114 0 204.5 -39t149.5 -106t98.5 -161t56 -199t16.5 -226q0 -78 -5 -150.5t-19.5 -157t-38 -156t-63 -139t-91.5 -115t-127 -76t-166 -28.5q-77 0 -141.5 21t-106.5 55t-75 74.5t-51 81.5t-29.5 75t-15.5 55l-3 21h180q1 -5 2 -13 t8.5 -31.5t17.5 -44.5t30 -47t45 -44.5t63 -31.5t84 -13q76 0 134.5 34t93 88t56.5 130t29.5 150t7.5 159q0 2 -6 -5.5t-20 -23t-33 -34.5t-48 -39t-62 -36.5t-78.5 -27t-94.5 -10.5q-145 0 -251 67t-159 181t-53 260zM242 1008q0 -154 76.5 -251.5t222.5 -97.5t222.5 97.5 t76.5 251.5q0 155 -77 255.5t-222 100.5t-222 -100.5t-77 -255.5z" />
<glyph unicode=":" horiz-adv-x="352" d="M82 0v209h188v-209h-188zM82 659v209h188v-209h-188z" />
<glyph unicode=";" horiz-adv-x="352" d="M80 -209l123 209h-121v209h188v-209l-123 -209h-67zM82 659v209h188v-209h-188z" />
<glyph unicode="&#x3c;" horiz-adv-x="1077" d="M102 342v160l873 348v-160l-680 -268l680 -268v-160z" />
<glyph unicode="=" horiz-adv-x="1036" d="M82 266v152h872v-152h-872zM82 594v151h872v-151h-872z" />
<glyph unicode="&#x3e;" horiz-adv-x="1077" d="M102 -6v160l680 268l-680 268v160l873 -348v-160z" />
<glyph unicode="?" horiz-adv-x="958" d="M41 1159q16 154 131 258.5t299 104.5q193 0 314.5 -118t121.5 -288q0 -230 -245 -418q-74 -56 -106.5 -90t-48 -75t-15.5 -105v-59h-160v59q0 77 10 129t40 98.5t67.5 81t109.5 90.5q174 137 174 293q0 118 -74 186t-188 68q-101 0 -172 -57.5t-86 -157.5h-172zM317 0 v209h189v-209h-189z" />
<glyph unicode="@" horiz-adv-x="1714" d="M82 745q0 158 58 300.5t159.5 248t249 167t317.5 61.5t314.5 -58.5t243 -159.5t153.5 -240t55 -298q0 -119 -32 -210.5t-101.5 -146.5t-167.5 -55q-147 0 -217 107q-14 -14 -32.5 -28t-52.5 -34t-82.5 -32.5t-102.5 -12.5q-174 0 -281.5 109.5t-107.5 275.5 q0 167 110 274t273 107q132 0 233 -71v53h146v-438q0 -172 124 -172q148 0 148 274q0 144 -48.5 262.5t-133 197t-198 121t-243.5 42.5t-246 -44.5t-204 -125.5t-139.5 -204t-51.5 -270q0 -300 174 -472.5t467 -172.5q78 0 153 17.5t111 34.5l35 18l54 -121 q-166 -80 -353 -80q-147 0 -273 39.5t-219 111t-159.5 168.5t-99.5 213t-33 244zM602 735q0 -109 67.5 -176t176.5 -67q61 0 114.5 21.5t76 40t36.5 36.5q-2 12 -2 41v262q-92 92 -215 92q-113 0 -183.5 -71t-70.5 -179z" />
<glyph unicode="A" horiz-adv-x="1519" d="M20 0v147h156l406 1196h-197v148h754v-148h-197l401 -1196h156v-147h-543v147h197l-131 388h-530l-132 -388h199v-147h-539zM541 682h432l-215 639z" />
<glyph unicode="B" horiz-adv-x="1245" d="M51 0v147h197v1196h-197v148h596q80 0 150 -12t133 -40t107.5 -70.5t71 -108t26.5 -148.5q0 -125 -68 -210.5t-184 -129.5q136 -37 218.5 -128t82.5 -241q0 -189 -137 -296t-379 -107h-617zM432 147h215q170 0 261 71.5t91 201.5t-92 201t-260 71h-215v-545zM432 836h195 q164 0 244.5 69.5t80.5 184.5t-80.5 184t-244.5 69h-195v-507z" />
<glyph unicode="C" horiz-adv-x="1521" d="M72 745q0 168 58.5 314.5t157.5 247t233 158t282 57.5q88 0 169 -18.5t133.5 -45t92.5 -53.5t58 -45l18 -19v150h164v-557h-164v125q-2 6 -6.5 16.5t-21.5 41.5t-38 58.5t-59 61.5t-82 58.5t-108 41.5t-136 17q-115 0 -217.5 -40.5t-180.5 -116t-123.5 -192.5t-45.5 -260 q0 -172 66 -309t194.5 -218t300.5 -81q66 0 129 14t111.5 36.5t91.5 50t73 55t52 50t32 36.5l11 14l133 -114q-8 -13 -24 -33.5t-74 -74t-125.5 -94.5t-178 -74.5t-231.5 -33.5q-154 0 -291 57t-237 157.5t-158.5 246.5t-58.5 315z" />
<glyph unicode="D" horiz-adv-x="1525" d="M51 0v147h197v1196h-197v148h572q191 0 348 -56t262.5 -155.5t163 -236.5t57.5 -298t-57.5 -298t-163 -236t-262.5 -155t-348 -56h-572zM432 147h191q151 0 274.5 46t204.5 127t124.5 190t43.5 235t-43.5 235t-124.5 190t-204.5 127t-274.5 46h-191v-1196z" />
<glyph unicode="E" horiz-adv-x="1271" d="M51 0v147h197v1196h-197v148h1118v-463h-176v315h-561v-477h447v-147h-447v-572h561v316h176v-463h-1118z" />
<glyph unicode="F" horiz-adv-x="1200" d="M51 0v147h197v1196h-197v148h1118v-463h-176v315h-561v-509h467v-148h-467v-539h225v-147h-606z" />
<glyph unicode="G" horiz-adv-x="1540" d="M72 756q0 151 51 289.5t142.5 244.5t228.5 169t297 63q85 0 163.5 -19t130.5 -46t92 -53.5t58 -45.5l18 -19v152h164v-524h-164v92q-2 6 -6 16.5t-21 41.5t-38 58.5t-59 61.5t-82.5 58.5t-109.5 41.5t-138 17q-246 0 -394.5 -168.5t-148.5 -429.5q0 -175 68 -314.5 t201.5 -222t312.5 -82.5q81 0 153.5 17.5t118 43t80 51t48.5 43.5l15 17v223h-262v148h426v-455q-8 -10 -23 -27.5t-69 -61.5t-115.5 -78t-162 -61.5t-209.5 -27.5q-160 0 -299.5 55t-243 154.5t-163.5 249t-60 328.5z" />
<glyph unicode="H" horiz-adv-x="1536" d="M51 0v147h197v1196h-197v148h578v-148h-197v-477h672v477h-197v148h578v-148h-197v-1196h197v-147h-578v147h197v572h-672v-572h197v-147h-578z" />
<glyph unicode="I" horiz-adv-x="679" d="M51 0v147h197v1196h-197v148h578v-148h-197v-1196h197v-147h-578z" />
<glyph unicode="J" horiz-adv-x="1048" d="M47 258v166h176v-156q2 -5 5 -14t18 -31.5t35 -40t56.5 -31.5t80.5 -14q97 0 151 68.5t54 169.5v968h-217v148h598v-148h-197v-968q0 -170 -103.5 -288t-279.5 -118q-146 0 -245 77t-132 212z" />
<glyph unicode="K" horiz-adv-x="1349" d="M51 0v147h197v1196h-197v148h557v-148h-176v-1196h197v-147h-578zM442 791l449 552h-170v148h557v-148h-160l-448 -546l524 -650h125v-147h-557v147h196z" />
<glyph unicode="L" horiz-adv-x="1175" d="M51 0v147h197v1196h-197v148h608v-148h-227v-1196h526v316h177v-463h-1084z" />
<glyph unicode="M" horiz-adv-x="1863" d="M51 0v147h197v1196h-197v148h510l371 -1057l373 1057h507v-148h-196v-1196h196v-147h-598v147h218v1196l-418 -1200h-168l-416 1200v-1196h217v-147h-596z" />
<glyph unicode="N" horiz-adv-x="1693" d="M51 0v147h197v1196h-197v148h506l707 -1145v997h-217v148h595v-148h-196v-1343h-186l-830 1343v-1196h217v-147h-596z" />
<glyph unicode="O" horiz-adv-x="1683" d="M72 745q0 159 59.5 302.5t161.5 247.5t245.5 165.5t303.5 61.5t303.5 -61.5t245.5 -165.5t161.5 -247.5t59.5 -302.5t-59.5 -302.5t-161.5 -247.5t-245.5 -165t-303.5 -61t-303.5 61t-245.5 165t-161.5 247.5t-59.5 302.5zM256 745q0 -164 75.5 -301t210 -217t300.5 -80 t300.5 80t209.5 217t75 301t-75 301t-209.5 217t-300.5 80t-300.5 -80t-210 -217t-75.5 -301z" />
<glyph unicode="P" horiz-adv-x="1243" d="M51 0v147h197v1196h-197v148h578q267 0 410 -124t143 -337t-143 -337t-410 -124h-197v-422h238v-147h-619zM432 717h197q101 0 174.5 25.5t114.5 71t60 99t19 117.5t-19 117.5t-60 99t-114.5 71t-174.5 25.5h-197v-626z" />
<glyph unicode="Q" horiz-adv-x="1683" d="M72 745q0 159 59.5 302.5t161.5 247.5t245.5 165.5t303.5 61.5t303.5 -61.5t245.5 -165.5t161.5 -247.5t59.5 -302.5q0 -245 -132 -440t-350 -282l130 -181h194v-178h-301l-221 311q-87 -6 -90 -6q-160 0 -303.5 61t-245.5 165t-161.5 247.5t-59.5 302.5zM256 745 q0 -164 75.5 -301t210 -217t300.5 -80t300.5 80t209.5 217t75 301t-75 301t-209.5 217t-300.5 80t-300.5 -80t-210 -217t-75.5 -301z" />
<glyph unicode="R" horiz-adv-x="1323" d="M51 0v147h197v1196h-197v148h557q242 0 381 -98t139 -289q0 -254 -239 -346q124 -33 185 -139.5t61 -299.5v-172h168v-147h-353v322q0 77 -7.5 131.5t-26 94.5t-44 64.5t-68.5 39t-92.5 19.5t-121.5 5h-158v-529h238v-147h-619zM432 823h176q336 0 336 260t-336 260h-176 v-520z" />
<glyph unicode="S" horiz-adv-x="1157" d="M82 0v500h170q3 -156 104.5 -259.5t270.5 -103.5q126 0 200 71t74 179q0 65 -27.5 113t-74 77t-106.5 50t-126.5 39t-133.5 38.5t-127 53.5t-106.5 78t-74 118t-27.5 168q0 167 118 283.5t300 116.5q70 0 131 -16t98.5 -38.5t65 -45t38.5 -38.5l11 -16v123h164v-459h-170 q-1 144 -91 233t-233 89q-109 0 -180 -68t-71 -172q0 -60 27.5 -105t74 -72.5t107 -48.5t127.5 -39.5t134 -39.5t127.5 -53.5t107 -76.5t74 -114.5t27.5 -161.5q0 -190 -119 -312t-323 -122q-55 0 -106.5 10t-90.5 25.5t-72.5 34.5t-56.5 38t-39.5 34.5t-23.5 25.5l-8 10 v-147h-164z" />
<glyph unicode="T" horiz-adv-x="1236" d="M41 1028v463h1155v-463h-176v315h-309v-1196h237v-147h-659v147h237v1196h-309v-315h-176z" />
<glyph unicode="U" horiz-adv-x="1572" d="M45 1343v148h578v-148h-197v-790q0 -97 20.5 -175t62.5 -137t112.5 -91.5t164.5 -32.5q125 0 207.5 57.5t118 152.5t35.5 226v790h-197v148h578v-148h-197v-790q0 -265 -143.5 -424.5t-401.5 -159.5t-401 159.5t-143 424.5v790h-197z" />
<glyph unicode="V" horiz-adv-x="1585" d="M20 1343v148h568v-148h-172l387 -1122l393 1122h-192v148h561v-148h-172l-480 -1343h-225l-475 1343h-193z" />
<glyph unicode="W" horiz-adv-x="2238" d="M20 1343v148h568v-148h-178l299 -1052l307 1052h-195v148h600v-148h-190l303 -1056l305 1056h-184v148h563v-148h-186l-396 -1343h-217l-301 1042l-303 -1042h-217l-391 1343h-187z" />
<glyph unicode="X" horiz-adv-x="1443" d="M31 0v147h166l415 617l-387 579h-176v148h592v-148h-192l276 -413l281 413h-199v148h588v-148h-176l-388 -573l418 -623h164v-147h-582v147h195l-307 457l-309 -457h198v-147h-577z" />
<glyph unicode="Y" horiz-adv-x="1363" d="M20 1343v148h558v-148h-187l291 -528l293 528h-189v148h557v-148h-159l-410 -727v-469h217v-147h-618v147h217v463l-410 733h-160z" />
<glyph unicode="Z" horiz-adv-x="1269" d="M82 1036v455h1085v-137l-858 -1207h701v336h168v-483h-1094v147l852 1196h-686v-307h-168z" />
<glyph unicode="[" horiz-adv-x="468" d="M82 -195v1872h346v-123h-172v-1626h172v-123h-346z" />
<glyph unicode="\" horiz-adv-x="856" d="M20 1524h160l656 -1557h-160z" />
<glyph unicode="]" horiz-adv-x="468" d="M41 -72h172v1626h-172v123h346v-1872h-346v123z" />
<glyph unicode="^" horiz-adv-x="1179" d="M102 956l353 535h270l352 -535h-164l-323 420l-324 -420h-164z" />
<glyph unicode="_" horiz-adv-x="819" d="M0 -106h819v-138h-819v138z" />
<glyph unicode="`" horiz-adv-x="526" d="M51 1466h203l221 -356h-139z" />
<glyph unicode="a" d="M61 485q0 221 145.5 363.5t360.5 142.5q192 0 332 -108v84h172v-834h176v-133h-348v84q-143 -109 -324 -109q-230 0 -372 146t-142 364zM233 481q0 -157 95.5 -252.5t251.5 -95.5q69 0 127.5 16.5t97.5 43t59 45.5t35 38v422q-16 18 -38 36.5t-61 43.5t-93.5 40.5 t-114.5 15.5q-160 0 -259.5 -99.5t-99.5 -253.5z" />
<glyph unicode="b" d="M41 0v133h176v1225h-176v133h348v-608q140 108 332 108q215 0 360.5 -142.5t145.5 -363.5q0 -218 -142 -364t-372 -146q-186 0 -324 109v-84h-348zM389 276q15 -19 35.5 -38t59 -45.5t97.5 -43t128 -16.5q155 0 250.5 95.5t95.5 252.5q0 154 -99.5 253.5t-259.5 99.5 q-61 0 -115.5 -15.5t-93 -40.5t-60 -43t-38.5 -37v-422z" />
<glyph unicode="c" horiz-adv-x="1107" d="M61 487q0 136 63.5 251.5t177.5 184t253 68.5q192 0 317 -125v101h154v-396h-154v64q-9 22 -20.5 41.5t-37.5 50.5t-58 53t-83.5 38t-111.5 16q-139 0 -233.5 -98t-94.5 -249q0 -159 97 -256.5t256 -97.5q58 0 109.5 18.5t83 45t55 53t33.5 44.5l10 19l139 -82 q-5 -10 -15.5 -27.5t-49.5 -61.5t-85 -78t-123.5 -61.5t-164.5 -27.5q-106 0 -200.5 36.5t-164.5 102t-111 162.5t-41 211z" />
<glyph unicode="d" d="M61 485q0 221 145.5 363.5t360.5 142.5q192 0 332 -108v475h-205v133h377v-1358h176v-133h-348v84q-143 -109 -324 -109q-230 0 -372 146t-142 364zM233 481q0 -157 95.5 -252.5t251.5 -95.5q69 0 127.5 16.5t97.5 43t59 45.5t35 38v422q-16 18 -38 36.5t-61 43.5 t-93.5 40.5t-114.5 15.5q-160 0 -259.5 -99.5t-99.5 -253.5z" />
<glyph unicode="e" horiz-adv-x="1118" d="M61 483q0 139 63.5 255t179.5 184.5t261 68.5q218 0 355 -142.5t137 -365.5v-41h-821q13 -134 101.5 -221.5t237.5 -87.5q60 0 113.5 18.5t87 44.5t58.5 52t36 44l11 19l137 -100q-6 -10 -17 -25.5t-52 -56.5t-88 -72t-125.5 -56.5t-164.5 -25.5q-148 0 -266 70 t-181 185.5t-63 252.5zM246 584h628q-25 115 -105.5 182.5t-203.5 67.5q-121 0 -205.5 -69.5t-113.5 -180.5z" />
<glyph unicode="f" horiz-adv-x="616" d="M41 0v133h176v701h-176v133h176v200q0 150 71.5 237t225.5 87l61 -4v-144q-22 5 -40 5q-146 0 -146 -181v-200h186v-133h-186v-701h186v-133h-534z" />
<glyph unicode="g" horiz-adv-x="1275" d="M61 502q0 209 145.5 349t362.5 140q186 0 318 -106v82h348v-133h-176v-732q0 -221 -134.5 -348t-385.5 -127q-70 0 -137 10.5t-113 25.5t-82 29.5t-53 25.5l-17 10l82 147q5 -4 14.5 -10t41.5 -21.5t67 -27.5t88.5 -21.5t108.5 -9.5q155 0 251.5 76t96.5 227v35 q-136 -107 -324 -107q-113 0 -208.5 39t-159 105t-99 154.5t-35.5 187.5zM233 502q0 -153 97.5 -240.5t253.5 -87.5q61 0 115 16.5t92.5 43t59 45.5t36.5 38v381q-17 20 -38.5 38t-59.5 43t-91 40t-112 15q-155 0 -254 -96.5t-99 -235.5z" />
<glyph unicode="h" horiz-adv-x="1253" d="M41 0v133h176v1225h-176v133h348v-614q118 114 291 114q175 0 271 -96.5t96 -273.5v-488h172v-133h-517v133h172v488q0 113 -54 175t-161 62q-54 0 -101.5 -17t-80 -45.5t-53 -53.5t-35.5 -52v-557h176v-133h-524z" />
<glyph unicode="i" horiz-adv-x="606" d="M41 0v133h176v701h-176v133h348v-834h176v-133h-524zM145 1372q0 50 34.5 84.5t84.5 34.5t84.5 -34.5t34.5 -84.5t-34.5 -84.5t-84.5 -34.5t-84.5 34.5t-34.5 84.5z" />
<glyph unicode="j" horiz-adv-x="606" d="M33 -164q14 -2 39 -2q145 0 145 197v803h-176v133h348v-936q0 -147 -77 -238.5t-232 -91.5l-47 2v133zM141 1372q0 50 34.5 84.5t84.5 34.5t84.5 -34.5t34.5 -84.5t-34.5 -84.5t-84.5 -34.5t-84.5 34.5t-34.5 84.5z" />
<glyph unicode="k" horiz-adv-x="1222" d="M41 0v133h176v1225h-176v133h348v-1358h148v-133h-496zM406 559l315 275h-156v133h565v-133h-176l-319 -275l414 -426h133v-133h-516v133h153z" />
<glyph unicode="l" horiz-adv-x="606" d="M41 0v133h176v1225h-176v133h348v-1358h176v-133h-524z" />
<glyph unicode="m" horiz-adv-x="1837" d="M41 0v133h172v701h-172v133h344v-90q114 114 289 114q205 0 291 -162q19 26 44 49.5t65 51.5t98 44.5t124 16.5q155 0 244.5 -95t89.5 -265v-498h172v-133h-516v133h172v498q0 111 -50 169t-146 58q-52 0 -97.5 -17.5t-77 -46t-50.5 -51.5t-33 -47q4 -40 4 -65v-498h151 v-133h-475v133h152v498q0 111 -50.5 169t-146.5 58q-50 0 -94 -16.5t-75.5 -43.5t-50.5 -49.5t-34 -46.5v-569h172v-133h-516z" />
<glyph unicode="n" horiz-adv-x="1253" d="M41 0v133h176v701h-176v133h348v-90q118 114 291 114q175 0 271 -96.5t96 -273.5v-488h172v-133h-517v133h172v488q0 113 -54 175t-161 62q-54 0 -101.5 -17t-80 -45.5t-53 -53.5t-35.5 -52v-557h176v-133h-524z" />
<glyph unicode="o" horiz-adv-x="1150" d="M61 483q0 139 65.5 255.5t184 184.5t264.5 68q110 0 206.5 -40t163.5 -108.5t106 -162t39 -197.5t-39 -197.5t-106 -162t-163.5 -108.5t-206.5 -40q-146 0 -264.5 68t-184 184.5t-65.5 255.5zM233 483q0 -147 96 -248.5t246 -101.5t246.5 101.5t96.5 248.5t-96.5 249 t-246.5 102t-246 -102t-96 -249z" />
<glyph unicode="p" d="M41 -215h176v1049h-176v133h348v-84q140 108 332 108q215 0 360.5 -142.5t145.5 -363.5q0 -218 -142 -364t-372 -146q-186 0 -324 109v-299h205v-133h-553v133zM389 276q15 -19 35.5 -38t59 -45.5t97.5 -43t128 -16.5q155 0 250.5 95.5t95.5 252.5q0 154 -99.5 253.5 t-259.5 99.5q-61 0 -115.5 -15.5t-93 -40.5t-60 -43t-38.5 -37v-422z" />
<glyph unicode="q" d="M61 485q0 221 145.5 363.5t360.5 142.5q192 0 332 -108v84h348v-133h-176v-1049h176v-133h-553v133h205v299q-143 -109 -324 -109q-230 0 -372 146t-142 364zM233 481q0 -157 95.5 -252.5t251.5 -95.5q69 0 127.5 16.5t97.5 43t59 45.5t35 38v422q-16 18 -38 36.5 t-61 43.5t-93.5 40.5t-114.5 15.5q-160 0 -259.5 -99.5t-99.5 -253.5z" />
<glyph unicode="r" horiz-adv-x="763" d="M41 0v133h176v701h-176v133h338v-121q98 145 266 145q29 0 51 -3t30 -6l7 -3v-168q-35 10 -90 10q-66 0 -116.5 -25.5t-75.5 -61.5t-40 -72t-19 -62l-3 -25v-442h197v-133h-545z" />
<glyph unicode="s" horiz-adv-x="866" d="M61 0v326h154q0 -96 71 -152.5t171 -56.5q85 0 130.5 38t45.5 107q0 33 -13.5 59.5t-31.5 43t-52.5 31t-61 22t-71.5 18.5q-80 19 -132.5 37.5t-103 51.5t-75 84t-24.5 122q0 84 44.5 144.5t111.5 88t147 27.5q50 0 95.5 -10t74.5 -24.5t51 -29t32 -24.5l9 -10v74h153 v-305h-153v10q0 77 -73 132.5t-175 55.5q-74 0 -118 -32t-44 -87q0 -60 48.5 -94t181.5 -61q184 -37 268 -118t84 -206q0 -123 -89 -205t-227 -82q-52 0 -99.5 11.5t-78 28t-53.5 33.5t-33 28l-10 12v-88h-154z" />
<glyph unicode="t" horiz-adv-x="606" d="M41 834v133h176v329h172v-329h176v-133h-176v-701h176v-133h-348v834h-176z" />
<glyph unicode="u" horiz-adv-x="1253" d="M35 834v133h344v-621q0 -113 54 -175t161 -62q54 0 100.5 17t79.5 45.5t53.5 53t36.5 51.5v558h-176v133h348v-834h176v-133h-348v90q-119 -115 -291 -115q-175 0 -270.5 97t-95.5 274v488h-172z" />
<glyph unicode="v" horiz-adv-x="1099" d="M0 834v133h442v-133h-135l242 -627l248 627h-135v133h438v-133h-127l-332 -834h-186l-328 834h-127z" />
<glyph unicode="w" horiz-adv-x="1720" d="M0 834v133h442v-133h-139l215 -637l219 637h-139v133h524v-133h-135l215 -637l219 637h-139v133h438v-133h-123l-290 -834h-209l-238 700l-242 -700h-208l-287 834h-123z" />
<glyph unicode="x" horiz-adv-x="1193" d="M31 0v133h135l326 369l-289 332h-135v133h442v-133h-94l182 -209l184 209h-94v133h438v-133h-135l-289 -328l326 -373h135v-133h-442v133h94l-221 250l-219 -250h94v-133h-438z" />
<glyph unicode="y" horiz-adv-x="1181" d="M10 834v133h500v-133h-176l256 -629l268 629h-178v133h491v-133h-133l-444 -1049h156v-133h-494v133h158l84 203l-355 846h-133z" />
<glyph unicode="z" horiz-adv-x="997" d="M61 0v137l625 697h-444v-183h-156v316h823v-138l-624 -696h495v203h156v-336h-875z" />
<glyph unicode="{" horiz-adv-x="528" d="M31 684v115q63 0 86.5 25.5t23.5 70.5v561q0 125 65.5 173t194.5 48h86v-123h-86q-45 0 -65.5 -23t-20.5 -73v-543q0 -45 -16 -80t-38.5 -52t-44.5 -27.5t-38 -12.5l-16 -2q6 -1 16.5 -2.5t37 -12.5t46.5 -27.5t36.5 -51.5t16.5 -80v-542q0 -50 20.5 -73.5t65.5 -23.5h86 v-123h-86q-128 0 -194 48.5t-66 173.5v561q0 45 -23.5 70.5t-86.5 25.5z" />
<glyph unicode="|" horiz-adv-x="460" d="M143 -227v1941h174v-1941h-174z" />
<glyph unicode="}" horiz-adv-x="528" d="M41 -72h86q45 0 65.5 23.5t20.5 73.5v542q0 45 16 80t38.5 52t45 27.5t38.5 12.5l16 2q-6 1 -16.5 2.5t-37 12.5t-47 27.5t-37 51.5t-16.5 80v543q0 50 -20.5 73t-65.5 23h-86v123h86q129 0 194.5 -48t65.5 -173v-561q0 -44 24 -70t87 -26v-115q-63 0 -87 -26t-24 -70 v-561q0 -125 -66 -173.5t-194 -48.5h-86v123z" />
<glyph unicode="~" horiz-adv-x="917" d="M27 1063q0 163 70 247.5t194 84.5q58 0 119.5 -25t104 -55t94 -55t93.5 -25q64 0 94.5 44.5t30.5 109.5h136q0 -163 -70.5 -247.5t-194.5 -84.5q-58 0 -119.5 25t-104 55t-94 55t-93.5 25q-64 0 -94.5 -44.5t-30.5 -109.5h-135z" />
<glyph unicode="&#xa1;" horiz-adv-x="442" d="M123 -524l24 1122h148l24 -1122h-196zM127 758v209h188v-209h-188z" />
<glyph unicode="&#xa2;" horiz-adv-x="1107" d="M61 1012q0 195 125.5 337.5t319.5 161.5v164h110v-164q151 -15 256 -120v100h154v-395h-154v63q-8 19 -18 37.5t-32 45.5t-48.5 48t-68 39t-89.5 25v-697q52 4 97.5 24.5t74 46.5t50 51t30.5 42l9 17l139 -82q-5 -10 -14.5 -26t-45.5 -57.5t-78 -74.5t-112.5 -62.5 t-149.5 -35.5v-160h-110v164q-194 24 -319.5 161.5t-125.5 346.5zM233 1012q0 -137 73.5 -230t199.5 -118v690q-120 -21 -196.5 -114t-76.5 -228z" />
<glyph unicode="&#xa3;" horiz-adv-x="1138" d="M82 0v127l33 8q24 7 48 18.5t55 34.5t54.5 53t39.5 77t16 102q0 38 -19 108h-227v144h166l-58 110h-108v144h47q-27 83 -27 151q0 191 126.5 318t332.5 127q197 0 326 -123v92h170v-451h-176q0 79 -26.5 141t-71.5 98.5t-99 55.5t-113 19q-126 0 -207 -75.5t-81 -201.5 q0 -66 30 -151h459v-144h-393l55 -110h338v-144h-287q15 -69 15 -108q0 -155 -101 -252h486v260h172v-428h-975z" />
<glyph unicode="&#xa4;" horiz-adv-x="1048" d="M102 399l129 129q-69 94 -69 217q0 126 69 216l-129 131l76 75l129 -131q98 72 217 72q121 0 215 -72l131 131l76 -75l-131 -131q72 -94 72 -216q0 -119 -72 -217l131 -129l-76 -75l-131 129q-92 -70 -215 -70q-122 0 -217 70l-129 -129zM264 745q0 -107 76.5 -183.5 t183.5 -76.5t183.5 76.5t76.5 183.5t-76.5 184t-183.5 77t-183.5 -77t-76.5 -184z" />
<glyph unicode="&#xa5;" horiz-adv-x="1298" d="M20 1343v148h525v-148h-162l266 -522l269 522h-164v148h524v-148h-160l-219 -417h236v-144h-312l-53 -102h365v-143h-396v-390h217v-147h-614v147h217v390h-395v143h360l-53 102h-307v144h233l-217 417h-160z" />
<glyph unicode="&#xa6;" horiz-adv-x="460" d="M143 -227v854h174v-854h-174zM143 860v854h174v-854h-174z" />
<glyph unicode="&#xa7;" horiz-adv-x="886" d="M72 -8v325h153q0 -95 74.5 -151.5t175.5 -56.5q72 0 121 42t49 103q0 74 -49.5 107t-181.5 63q-336 76 -336 324q0 76 36 141.5t99 105.5q-135 87 -135 238q0 122 83.5 201t219.5 79q50 0 95.5 -10t74.5 -24.5t51 -29t32 -24.5l9 -10v74h154v-305h-154v10q0 77 -73 132.5 t-175 55.5q-68 0 -116 -35t-48 -104q0 -61 47.5 -102t184.5 -74q73 -17 130 -42t105.5 -62.5t74.5 -93t26 -126.5q0 -75 -34.5 -139t-94.5 -104q145 -87 145 -246q0 -117 -84 -202t-215 -85q-56 0 -107 11.5t-83 28t-56 33.5t-34 28l-11 12v-88h-153zM233 762 q0 -131 191 -180q14 -4 47 -4q82 0 127 44.5t45 106.5q0 128 -192 180q-24 4 -45 4q-82 0 -127.5 -44.5t-45.5 -106.5z" />
<glyph unicode="&#xa8;" horiz-adv-x="634" d="M51 1229q0 41 30 70.5t71 29.5t70.5 -29.5t29.5 -70.5t-29.5 -71t-70.5 -30t-71 30t-30 71zM383 1229q0 41 29.5 70.5t70.5 29.5t71 -29.5t30 -70.5t-30 -71t-71 -30t-70.5 30t-29.5 71z" />
<glyph unicode="&#xa9;" horiz-adv-x="1736" d="M92 745q0 158 61.5 301.5t165.5 248t247.5 166t301.5 61.5t301.5 -61.5t248 -166t166 -248t61.5 -301.5t-61.5 -301.5t-166 -247.5t-248 -165.5t-301.5 -61.5t-301.5 61.5t-247.5 165.5t-165.5 247.5t-61.5 301.5zM176 745q0 -188 92.5 -347.5t252 -252t347.5 -92.5 q141 0 269.5 54.5t221 147.5t147.5 221t55 269t-55 269.5t-147.5 221t-221 147.5t-269.5 55t-269 -55t-221 -147.5t-147.5 -221t-54.5 -269.5zM414 733q0 136 60 244.5t160.5 167.5t221.5 59q44 0 88.5 -10.5t77.5 -25t59.5 -29t40.5 -25.5l13 -10v82h106v-342h-106v78 q-4 11 -12 27t-30 43.5t-50 49t-74.5 38t-100.5 16.5q-142 0 -239 -96.5t-97 -266.5q0 -157 89.5 -258.5t242.5 -101.5q54 0 105 16t85 38.5t60 45.5t38 39l13 16l86 -73q-5 -8 -15 -21t-45.5 -45.5t-76.5 -58t-108.5 -46t-141.5 -20.5q-191 0 -320.5 131.5t-129.5 337.5z " />
<glyph unicode="&#xaa;" horiz-adv-x="747" d="M51 1219q0 126 81.5 205t203.5 79q95 0 176 -53v41h109v-459h96v-86h-205v41q-78 -53 -170 -53q-131 0 -211 81t-80 204zM160 1217q0 -83 50.5 -133t133.5 -50q94 0 168 74v227q-22 25 -63.5 47.5t-98.5 22.5q-85 0 -137.5 -52.5t-52.5 -135.5z" />
<glyph unicode="&#xab;" horiz-adv-x="884" d="M51 375l244 375h188l-239 -375l239 -375h-188zM401 375l244 375h189l-240 -375l240 -375h-189z" />
<glyph unicode="&#xac;" horiz-adv-x="1243" d="M102 922v127h1039v-457h-140v330h-899z" />
<glyph unicode="&#xad;" horiz-adv-x="757" d="M113 453v172h532v-172h-532z" />
<glyph unicode="&#xae;" horiz-adv-x="1427" d="M82 889q0 129 50 246t134 202t201 135t246 50t246 -50t202 -135t135 -202t50 -246t-50 -246t-135 -201t-202 -134t-246 -50t-246 50t-201 134t-134 201t-50 246zM166 889q0 -149 73 -275t199 -199t275 -73t275.5 73t200 199t73.5 275t-73.5 275.5t-200 200t-275.5 73.5 t-275 -73.5t-199 -200t-73 -275.5zM446 553v86h89v518h-89v88h263q112 0 177.5 -47t65.5 -137q0 -107 -90 -156q92 -41 92 -198v-68h76v-86h-178v156q0 92 -31.5 119.5t-120.5 27.5h-61v-217h106v-86h-299zM639 944h70q139 0 139 107q0 106 -139 106h-70v-213z" />
<glyph unicode="&#xaf;" horiz-adv-x="632" d="M51 1130v138h531v-138h-531z" />
<glyph unicode="&#xb0;" horiz-adv-x="720" d="M72 1233q0 120 84 204.5t204 84.5t204.5 -84.5t84.5 -204.5t-84.5 -204.5t-204.5 -84.5t-204 84.5t-84 204.5zM209 1233q0 -63 44 -107.5t107 -44.5t107.5 44.5t44.5 107.5t-44.5 107t-107.5 44t-107 -44t-44 -107z" />
<glyph unicode="&#xb1;" horiz-adv-x="1036" d="M82 0v152h872v-152h-872zM82 618v152h358v360h156v-360h358v-152h-358v-360h-156v360h-358z" />
<glyph unicode="&#xb2;" horiz-adv-x="612" d="M51 1180v84q0 111 69 177t177 66q112 0 177 -62t65 -155q0 -60 -22 -107t-81 -112l-223 -248h248v135h110v-233h-518v82l322 358q53 57 53 125q0 49 -35.5 81t-95.5 32q-57 0 -96 -34t-39 -99h88v-90h-199z" />
<glyph unicode="&#xb3;" horiz-adv-x="618" d="M51 956h111q0 -68 41 -105.5t108 -37.5q59 0 97 35.5t38 93.5q0 46 -35.5 84.5t-99.5 38.5h-18v86q6 0 15 1t33 8.5t42.5 20t33.5 39t15 62.5q0 59 -37 95t-100 36q-37 0 -64.5 -12t-40.5 -29.5t-20.5 -34.5t-8.5 -29l-1 -12h80v-88h-185v60q0 111 67 175t175 64 q111 0 177.5 -61t66.5 -158q0 -53 -25.5 -98.5t-75.5 -73.5q117 -55 117 -180q0 -99 -70 -163t-178 -64q-119 0 -188.5 67t-69.5 180z" />
<glyph unicode="&#xb4;" horiz-adv-x="526" d="M51 1110l221 356h203l-285 -356h-139z" />
<glyph unicode="&#xb6;" horiz-adv-x="1167" d="M20 1034q0 92 32 172.5t95.5 145t169 102t242.5 37.5h557v-133h-129v-1706h-158v1706h-112v-1706h-158v926q-137 0 -242.5 37.5t-169 102t-95.5 144.5t-32 172zM193 1034q0 -151 90.5 -237t275.5 -86v647q-185 0 -275.5 -86.5t-90.5 -237.5z" />
<glyph unicode="&#xb7;" horiz-adv-x="352" d="M82 670v209h188v-209h-188z" />
<glyph unicode="&#xb8;" horiz-adv-x="628" d="M51 -496l51 107q78 -39 187 -39q56 0 96.5 24.5t40.5 73.5q0 37 -31.5 57.5t-87.5 20.5q-16 0 -33 -3t-26 -6l-8 -3l-74 45l100 219h135l-61 -133q113 0 175.5 -54t62.5 -137q0 -103 -84 -165t-195 -62q-71 0 -133 13.5t-88 27.5z" />
<glyph unicode="&#xb9;" horiz-adv-x="382" d="M31 725v88h106v549q-54 -14 -106 -14v90q28 0 51.5 5.5t37 13t22.5 15.5t12 14l4 5h90v-678h104v-88h-321z" />
<glyph unicode="&#xba;" horiz-adv-x="684" d="M51 1219q0 120 82.5 202t208.5 82t208.5 -82t82.5 -202t-82.5 -202.5t-208.5 -82.5t-208.5 82.5t-82.5 202.5zM160 1219q0 -78 51 -132.5t131 -54.5t131 54.5t51 132.5t-51 132t-131 54t-131 -54t-51 -132z" />
<glyph unicode="&#xbb;" horiz-adv-x="884" d="M51 0l240 375l-240 375h189l243 -375l-243 -375h-189zM401 0l240 375l-240 375h189l244 -375l-244 -375h-189z" />
<glyph unicode="&#xbc;" horiz-adv-x="1165" d="M72 725v88h106v549q-54 -14 -106 -14v90q28 0 51.5 5.5t37 13t22.5 15.5t13 14l3 5h90v-678h104v-88h-321zM186 0l668 1491h115l-668 -1491h-115zM569 195v88l320 483h98v-473h107v-98h-107v-107h107v-88h-328v88h111v107h-308zM686 293h191v282z" />
<glyph unicode="&#xbd;" horiz-adv-x="1292" d="M72 725v88h106v549q-54 -14 -106 -14v90q28 0 51.5 5.5t37 13t22.5 15.5t13 14l3 5h90v-678h104v-88h-321zM188 0l668 1491h115l-668 -1491h-115zM700 455v84q0 111 69 177t177 66q112 0 177 -62t65 -155q0 -60 -22 -107t-81 -112l-223 -248h248v135h111v-233h-519v82 l322 358q53 57 53 125q0 49 -35.5 81t-95.5 32q-57 0 -96 -34t-39 -99h88v-90h-199z" />
<glyph unicode="&#xbe;" horiz-adv-x="1300" d="M72 956h110q0 -68 41 -105.5t109 -37.5q59 0 97 35.5t38 93.5q0 46 -35.5 84.5t-99.5 38.5h-19v86q3 0 8 0.5t19.5 3.5t28 7.5t29.5 14.5t27.5 23.5t19.5 34.5t8 47q0 59 -37.5 95t-100.5 36q-37 0 -64.5 -12t-40.5 -29.5t-20.5 -34.5t-8.5 -29l-1 -12h80v-88h-184v60 q0 111 66.5 175t174.5 64q111 0 177.5 -61t66.5 -158q0 -53 -25.5 -98.5t-74.5 -73.5q117 -55 117 -180q0 -99 -70 -163t-178 -64q-119 0 -188.5 67t-69.5 180zM322 0l667 1491h115l-668 -1491h-114zM705 195v88l319 483h98v-473h107v-98h-107v-107h107v-88h-328v88h111v107 h-307zM821 293h191v282z" />
<glyph unicode="&#xbf;" horiz-adv-x="958" d="M51 -150q0 230 246 418q74 56 106.5 90t48 75.5t15.5 105.5v59h160v-59q0 -77 -10 -129t-40.5 -98.5t-68 -81.5t-109.5 -91q-174 -137 -174 -293q0 -118 74 -186t188 -68q101 0 172 57.5t86 157.5h173q-16 -154 -131 -258t-300 -104q-194 0 -315 117.5t-121 287.5z M453 758v209h188v-209h-188z" />
<glyph unicode="&#xc0;" horiz-adv-x="1519" d="M20 0v147h156l406 1196h-197v148h754v-148h-197l401 -1196h156v-147h-543v147h197l-131 388h-530l-132 -388h199v-147h-539zM424 1990h203l221 -356h-139zM541 682h432l-215 639z" />
<glyph unicode="&#xc1;" horiz-adv-x="1519" d="M20 0v147h156l406 1196h-197v148h754v-148h-197l401 -1196h156v-147h-543v147h197l-131 388h-530l-132 -388h199v-147h-539zM541 682h432l-215 639zM670 1634l221 357h203l-285 -357h-139z" />
<glyph unicode="&#xc2;" horiz-adv-x="1519" d="M20 0v147h156l406 1196h-197v148h754v-148h-197l401 -1196h156v-147h-543v147h197l-131 388h-530l-132 -388h199v-147h-539zM434 1634l221 356h207l221 -356h-147l-178 238l-176 -238h-148zM541 682h432l-215 639z" />
<glyph unicode="&#xc3;" horiz-adv-x="1519" d="M20 0v147h156l406 1196h-197v148h754v-148h-197l401 -1196h156v-147h-543v147h197l-131 388h-530l-132 -388h199v-147h-539zM449 1634q0 236 184 236q46 0 86.5 -16.5t64 -36t51 -36t50.5 -16.5q69 0 69 97h117q0 -236 -184 -236q-46 0 -86.5 16.5t-64 36t-51 36 t-50.5 16.5q-70 0 -70 -97h-116zM541 682h432l-215 639z" />
<glyph unicode="&#xc4;" horiz-adv-x="1519" d="M20 0v147h156l406 1196h-197v148h754v-148h-197l401 -1196h156v-147h-543v147h197l-131 388h-530l-132 -388h199v-147h-539zM493 1753q0 41 30 70.5t71 29.5t70.5 -29.5t29.5 -70.5t-29.5 -71t-70.5 -30t-71 30t-30 71zM541 682h432l-215 639zM825 1753q0 41 29.5 70.5 t70.5 29.5t71 -29.5t30 -70.5t-30 -71t-71 -30t-70.5 30t-29.5 71z" />
<glyph unicode="&#xc5;" horiz-adv-x="1519" d="M20 0v147h156l406 1196h-197v148h754v-148h-197l401 -1196h156v-147h-543v147h197l-131 388h-530l-132 -388h199v-147h-539zM516 1858q0 101 71.5 172t172.5 71t172.5 -71t71.5 -172t-71.5 -172.5t-172.5 -71.5t-172.5 71.5t-71.5 172.5zM541 682h432l-215 639zM645 1858 q0 -47 34 -81t81 -34t80.5 34t33.5 81t-33.5 80.5t-80.5 33.5t-81 -33.5t-34 -80.5z" />
<glyph unicode="&#xc6;" horiz-adv-x="2148" d="M0 0v147h150l774 1196h-179v148h1301v-463h-176v315h-561v-477h446v-147h-446v-572h561v316h176v-463h-1118v147h196v388h-524l-250 -388h168v-147h-518zM696 682h428v661z" />
<glyph unicode="&#xc7;" horiz-adv-x="1521" d="M72 745q0 168 58.5 314.5t157.5 247t233 158t282 57.5q88 0 169 -18.5t133.5 -45t92.5 -53.5t58 -45l18 -19v150h164v-557h-164v125q-2 6 -6.5 16.5t-21.5 41.5t-38 58.5t-59 61.5t-82 58.5t-108 41.5t-136 17q-115 0 -217.5 -40.5t-180.5 -116t-123.5 -192.5t-45.5 -260 q0 -172 66 -309t194.5 -218t300.5 -81q66 0 129 14t111.5 36.5t91.5 50t73 55t52 50t32 36.5l11 14l133 -114q-8 -12 -23.5 -32.5t-72 -73t-122 -93t-173 -75t-225.5 -36.5l-48 -102q113 0 175.5 -54t62.5 -137q0 -103 -84 -165t-195 -62q-71 0 -133 13.5t-88 27.5l-26 14 l51 107q77 -39 186 -39q56 0 96.5 24.5t40.5 73.5q0 37 -31 57.5t-87 20.5q-16 0 -33 -3t-26 -6l-9 -3l-74 45l90 196q-179 26 -321.5 127.5t-225.5 269t-83 371.5z" />
<glyph unicode="&#xc8;" horiz-adv-x="1271" d="M51 0v147h197v1196h-197v148h1118v-463h-176v315h-561v-477h447v-147h-447v-572h561v316h176v-463h-1118zM299 1990h203l221 -356h-139z" />
<glyph unicode="&#xc9;" horiz-adv-x="1271" d="M51 0v147h197v1196h-197v148h1118v-463h-176v315h-561v-477h447v-147h-447v-572h561v316h176v-463h-1118zM526 1634l222 357h202l-284 -357h-140z" />
<glyph unicode="&#xca;" horiz-adv-x="1271" d="M51 0v147h197v1196h-197v148h1118v-463h-176v315h-561v-477h447v-147h-447v-572h561v316h176v-463h-1118zM305 1634l221 356h207l221 -356h-147l-178 238l-176 -238h-148z" />
<glyph unicode="&#xcb;" horiz-adv-x="1271" d="M51 0v147h197v1196h-197v148h1118v-463h-176v315h-561v-477h447v-147h-447v-572h561v316h176v-463h-1118zM354 1753q0 41 30 70.5t71 29.5t70.5 -29.5t29.5 -70.5t-29.5 -70.5t-70.5 -29.5t-71 29.5t-30 70.5zM686 1753q0 41 29.5 70.5t70.5 29.5t71 -29.5t30 -70.5 t-30 -70.5t-71 -29.5t-70.5 29.5t-29.5 70.5z" />
<glyph unicode="&#xcc;" horiz-adv-x="679" d="M0 1990h203l221 -356h-139zM51 0v147h197v1196h-197v148h578v-148h-197v-1196h197v-147h-578z" />
<glyph unicode="&#xcd;" horiz-adv-x="679" d="M51 0v147h197v1196h-197v148h578v-148h-197v-1196h197v-147h-578zM258 1634l221 357h203l-285 -357h-139z" />
<glyph unicode="&#xce;" horiz-adv-x="679" d="M16 1634l221 356h207l221 -356h-147l-178 238l-176 -238h-148zM51 0v147h197v1196h-197v148h578v-148h-197v-1196h197v-147h-578z" />
<glyph unicode="&#xcf;" horiz-adv-x="679" d="M51 0v147h197v1196h-197v148h578v-148h-197v-1196h197v-147h-578zM74 1753q0 41 29.5 70.5t70.5 29.5t70.5 -29.5t29.5 -70.5t-29.5 -70.5t-70.5 -29.5t-70.5 29.5t-29.5 70.5zM406 1753q0 41 29.5 70.5t70.5 29.5t70.5 -29.5t29.5 -70.5t-29.5 -70.5t-70.5 -29.5 t-70.5 29.5t-29.5 70.5z" />
<glyph unicode="&#xd0;" horiz-adv-x="1525" d="M51 0v147h197v527h-197v147h197v522h-197v148h572q191 0 348 -56t262.5 -155.5t163 -236.5t57.5 -298t-57.5 -298t-163 -236t-262.5 -155t-348 -56h-572zM432 147h191q151 0 274.5 46t204.5 127t124.5 190t43.5 235t-43.5 235t-124.5 190t-204.5 127t-274.5 46h-191v-522 h397v-147h-397v-527z" />
<glyph unicode="&#xd1;" horiz-adv-x="1693" d="M51 0v147h197v1196h-197v148h506l707 -1145v997h-217v148h595v-148h-196v-1343h-186l-830 1343v-1196h217v-147h-596zM534 1634q0 122 49.5 179t135.5 57q46 0 86.5 -16.5t64 -36t50.5 -36t50 -16.5q70 0 70 96h117q0 -235 -185 -235q-37 0 -70.5 10.5t-56.5 26t-43.5 31 t-41 26t-39.5 10.5q-70 0 -70 -96h-117z" />
<glyph unicode="&#xd2;" horiz-adv-x="1683" d="M72 745q0 159 59.5 302.5t161.5 247.5t245.5 165.5t303.5 61.5t303.5 -61.5t245.5 -165.5t161.5 -247.5t59.5 -302.5t-59.5 -302.5t-161.5 -247.5t-245.5 -165t-303.5 -61t-303.5 61t-245.5 165t-161.5 247.5t-59.5 302.5zM256 745q0 -164 75.5 -301t210 -217t300.5 -80 t300.5 80t209.5 217t75 301t-75 301t-209.5 217t-300.5 80t-300.5 -80t-210 -217t-75.5 -301zM506 1990h203l221 -356h-139z" />
<glyph unicode="&#xd3;" horiz-adv-x="1683" d="M72 745q0 159 59.5 302.5t161.5 247.5t245.5 165.5t303.5 61.5t303.5 -61.5t245.5 -165.5t161.5 -247.5t59.5 -302.5t-59.5 -302.5t-161.5 -247.5t-245.5 -165t-303.5 -61t-303.5 61t-245.5 165t-161.5 247.5t-59.5 302.5zM256 745q0 -164 75.5 -301t210 -217t300.5 -80 t300.5 80t209.5 217t75 301t-75 301t-209.5 217t-300.5 80t-300.5 -80t-210 -217t-75.5 -301zM772 1634l221 357h203l-285 -357h-139z" />
<glyph unicode="&#xd4;" horiz-adv-x="1683" d="M72 745q0 159 59.5 302.5t161.5 247.5t245.5 165.5t303.5 61.5t303.5 -61.5t245.5 -165.5t161.5 -247.5t59.5 -302.5t-59.5 -302.5t-161.5 -247.5t-245.5 -165t-303.5 -61t-303.5 61t-245.5 165t-161.5 247.5t-59.5 302.5zM256 745q0 -164 75.5 -301t210 -217t300.5 -80 t300.5 80t209.5 217t75 301t-75 301t-209.5 217t-300.5 80t-300.5 -80t-210 -217t-75.5 -301zM516 1634l221 356h207l221 -356h-147l-178 238l-176 -238h-148z" />
<glyph unicode="&#xd5;" horiz-adv-x="1683" d="M72 745q0 159 59.5 302.5t161.5 247.5t245.5 165.5t303.5 61.5t303.5 -61.5t245.5 -165.5t161.5 -247.5t59.5 -302.5t-59.5 -302.5t-161.5 -247.5t-245.5 -165t-303.5 -61t-303.5 61t-245.5 165t-161.5 247.5t-59.5 302.5zM256 745q0 -164 75.5 -301t210 -217t300.5 -80 t300.5 80t209.5 217t75 301t-75 301t-209.5 217t-300.5 80t-300.5 -80t-210 -217t-75.5 -301zM530 1634q0 122 49.5 179t135.5 57q46 0 86.5 -16.5t64 -36t51 -36t50.5 -16.5q69 0 69 97h117q0 -236 -184 -236q-46 0 -86.5 16.5t-64 36t-51 36t-50.5 16.5q-70 0 -70 -97 h-117z" />
<glyph unicode="&#xd6;" horiz-adv-x="1683" d="M72 745q0 159 59.5 302.5t161.5 247.5t245.5 165.5t303.5 61.5t303.5 -61.5t245.5 -165.5t161.5 -247.5t59.5 -302.5t-59.5 -302.5t-161.5 -247.5t-245.5 -165t-303.5 -61t-303.5 61t-245.5 165t-161.5 247.5t-59.5 302.5zM256 745q0 -164 75.5 -301t210 -217t300.5 -80 t300.5 80t209.5 217t75 301t-75 301t-209.5 217t-300.5 80t-300.5 -80t-210 -217t-75.5 -301zM575 1753q0 41 30 70.5t71 29.5t70.5 -29.5t29.5 -70.5t-29.5 -71t-70.5 -30t-71 30t-30 71zM907 1753q0 41 29.5 70.5t70.5 29.5t71 -29.5t30 -70.5t-30 -71t-71 -30t-70.5 30 t-29.5 71z" />
<glyph unicode="&#xd7;" horiz-adv-x="929" d="M82 229l276 277l-276 276l106 107l277 -277l276 277l107 -107l-277 -276l277 -277l-107 -106l-276 276l-277 -276z" />
<glyph unicode="&#xd8;" horiz-adv-x="1683" d="M72 745q0 159 59.5 302.5t161.5 247.5t245.5 165.5t303.5 61.5q205 0 379 -99l90 129l129 -90l-90 -129q124 -109 193 -261.5t69 -326.5q0 -159 -59.5 -302.5t-161.5 -247.5t-245.5 -165t-303.5 -61q-202 0 -379 97l-90 -127l-129 90l90 129q-123 107 -192.5 260 t-69.5 327zM256 745q0 -130 47.5 -244t134.5 -196l678 971q-125 67 -274 67q-166 0 -300.5 -80t-210 -217t-75.5 -301zM565 213q126 -66 277 -66q166 0 300.5 80t209.5 217t75 301q0 129 -48 242.5t-134 196.5z" />
<glyph unicode="&#xd9;" horiz-adv-x="1572" d="M45 1343v148h578v-148h-197v-790q0 -97 20.5 -175t62.5 -137t112.5 -91.5t164.5 -32.5q125 0 207.5 57.5t118 152.5t35.5 226v790h-197v148h578v-148h-197v-790q0 -265 -143.5 -424.5t-401.5 -159.5t-401 159.5t-143 424.5v790h-197zM454 1990h203l221 -356h-139z" />
<glyph unicode="&#xda;" horiz-adv-x="1572" d="M45 1343v148h578v-148h-197v-790q0 -97 20.5 -175t62.5 -137t112.5 -91.5t164.5 -32.5q125 0 207.5 57.5t118 152.5t35.5 226v790h-197v148h578v-148h-197v-790q0 -265 -143.5 -424.5t-401.5 -159.5t-401 159.5t-143 424.5v790h-197zM676 1634l221 357h203l-285 -357 h-139z" />
<glyph unicode="&#xdb;" horiz-adv-x="1572" d="M45 1343v148h578v-148h-197v-790q0 -97 20.5 -175t62.5 -137t112.5 -91.5t164.5 -32.5q125 0 207.5 57.5t118 152.5t35.5 226v790h-197v148h578v-148h-197v-790q0 -265 -143.5 -424.5t-401.5 -159.5t-401 159.5t-143 424.5v790h-197zM459 1634l221 356h207l221 -356h-147 l-178 238l-176 -238h-148z" />
<glyph unicode="&#xdc;" horiz-adv-x="1572" d="M45 1343v148h578v-148h-197v-790q0 -97 20.5 -175t62.5 -137t112.5 -91.5t164.5 -32.5q125 0 207.5 57.5t118 152.5t35.5 226v790h-197v148h578v-148h-197v-790q0 -265 -143.5 -424.5t-401.5 -159.5t-401 159.5t-143 424.5v790h-197zM520 1753q0 41 30 70.5t71 29.5 t70.5 -29.5t29.5 -70.5t-29.5 -70.5t-70.5 -29.5t-71 29.5t-30 70.5zM852 1753q0 41 29.5 70.5t70.5 29.5t71 -29.5t30 -70.5t-30 -70.5t-71 -29.5t-70.5 29.5t-29.5 70.5z" />
<glyph unicode="&#xdd;" horiz-adv-x="1363" d="M20 1343v148h558v-148h-187l291 -528l293 528h-189v148h557v-148h-159l-410 -727v-469h217v-147h-618v147h217v463l-410 733h-160zM571 1634l221 356h203l-285 -356h-139z" />
<glyph unicode="&#xde;" horiz-adv-x="1243" d="M51 0v147h197v1196h-197v148h381v-213h197q267 0 410 -124t143 -337t-143 -337t-410 -124h-197v-209h238v-147h-619zM432 504h197q101 0 174.5 25.5t114.5 71t60 99t19 117.5t-19 117.5t-60 99t-114.5 71t-174.5 25.5h-197v-626z" />
<glyph unicode="&#xdf;" horiz-adv-x="1120" d="M41 0v133h143v938q0 182 112.5 301t305.5 119q153 0 259 -88.5t106 -224.5q0 -69 -24.5 -123.5t-61.5 -84.5t-80 -54t-80 -37t-61.5 -28t-24.5 -32q0 -20 33 -43t82 -46t107 -60t107 -80.5t82 -113t33 -152.5q0 -150 -106.5 -250.5t-274.5 -100.5q-74 0 -140 15t-95 30 l-29 15v166q4 -3 11.5 -8.5t33 -20t52.5 -25t68.5 -19.5t82.5 -9q92 0 159.5 54t67.5 151q0 57 -24 104t-63 79t-85.5 60.5t-93 54t-85.5 52t-63 62t-24 77.5q0 46 18.5 79t48 52t65 34t71 31t65 35.5t48 54t18.5 81.5q0 78 -55 129t-144 51q-121 0 -185.5 -81.5 t-64.5 -209.5v-1067h-315z" />
<glyph unicode="&#xe0;" d="M61 485q0 221 145.5 363.5t360.5 142.5q192 0 332 -108v84h172v-834h176v-133h-348v84q-143 -109 -324 -109q-230 0 -372 146t-142 364zM233 481q0 -157 95.5 -252.5t251.5 -95.5q69 0 127.5 16.5t97.5 43t59 45.5t35 38v422q-16 18 -38 36.5t-61 43.5t-93.5 40.5 t-114.5 15.5q-160 0 -259.5 -99.5t-99.5 -253.5zM268 1466h203l221 -356h-139z" />
<glyph unicode="&#xe1;" d="M61 485q0 221 145.5 363.5t360.5 142.5q192 0 332 -108v84h172v-834h176v-133h-348v84q-143 -109 -324 -109q-230 0 -372 146t-142 364zM233 481q0 -157 95.5 -252.5t251.5 -95.5q69 0 127.5 16.5t97.5 43t59 45.5t35 38v422q-16 18 -38 36.5t-61 43.5t-93.5 40.5 t-114.5 15.5q-160 0 -259.5 -99.5t-99.5 -253.5zM473 1110l221 356h203l-285 -356h-139z" />
<glyph unicode="&#xe2;" d="M61 485q0 221 145.5 363.5t360.5 142.5q192 0 332 -108v84h172v-834h176v-133h-348v84q-143 -109 -324 -109q-230 0 -372 146t-142 364zM233 481q0 -157 95.5 -252.5t251.5 -95.5q69 0 127.5 16.5t97.5 43t59 45.5t35 38v422q-16 18 -38 36.5t-61 43.5t-93.5 40.5 t-114.5 15.5q-160 0 -259.5 -99.5t-99.5 -253.5zM258 1110l221 356h207l221 -356h-147l-178 238l-176 -238h-148z" />
<glyph unicode="&#xe3;" d="M61 485q0 221 145.5 363.5t360.5 142.5q192 0 332 -108v84h172v-834h176v-133h-348v84q-143 -109 -324 -109q-230 0 -372 146t-142 364zM233 481q0 -157 95.5 -252.5t251.5 -95.5q69 0 127.5 16.5t97.5 43t59 45.5t35 38v422q-16 18 -38 36.5t-61 43.5t-93.5 40.5 t-114.5 15.5q-160 0 -259.5 -99.5t-99.5 -253.5zM250 1110q0 236 184 236q46 0 86.5 -16.5t64 -36t51 -36t50.5 -16.5q70 0 70 96h116q0 -235 -184 -235q-46 0 -86.5 16t-64 36t-51 36t-50.5 16q-69 0 -69 -96h-117z" />
<glyph unicode="&#xe4;" d="M61 485q0 221 145.5 363.5t360.5 142.5q192 0 332 -108v84h172v-834h176v-133h-348v84q-143 -109 -324 -109q-230 0 -372 146t-142 364zM233 481q0 -157 95.5 -252.5t251.5 -95.5q69 0 127.5 16.5t97.5 43t59 45.5t35 38v422q-16 18 -38 36.5t-61 43.5t-93.5 40.5 t-114.5 15.5q-160 0 -259.5 -99.5t-99.5 -253.5zM315 1229q0 41 30 70.5t71 29.5t70.5 -29.5t29.5 -70.5t-29.5 -71t-70.5 -30t-71 30t-30 71zM647 1229q0 41 29.5 70.5t70.5 29.5t71 -29.5t30 -70.5t-30 -71t-71 -30t-70.5 30t-29.5 71z" />
<glyph unicode="&#xe5;" d="M61 485q0 221 145.5 363.5t360.5 142.5q192 0 332 -108v84h172v-834h176v-133h-348v84q-143 -109 -324 -109q-230 0 -372 146t-142 364zM233 481q0 -157 95.5 -252.5t251.5 -95.5q69 0 127.5 16.5t97.5 43t59 45.5t35 38v422q-16 18 -38 36.5t-61 43.5t-93.5 40.5 t-114.5 15.5q-160 0 -259.5 -99.5t-99.5 -253.5zM317 1333q0 101 71.5 172.5t172.5 71.5t172.5 -71.5t71.5 -172.5t-71.5 -172t-172.5 -71t-172.5 71t-71.5 172zM446 1333q0 -47 34 -80.5t81 -33.5t81 33.5t34 80.5t-34 81t-81 34t-81 -34t-34 -81z" />
<glyph unicode="&#xe6;" horiz-adv-x="1855" d="M31 317q0 106 59.5 186t153.5 119.5t205 39.5q192 0 344 -97q-22 121 -112 195t-220 74q-48 0 -93.5 -12.5t-75.5 -30t-53.5 -34.5t-34.5 -29l-11 -13l-119 106q5 7 15.5 18.5t47.5 40.5t79 51.5t110 41t141 18.5q135 0 244 -57t176 -158q68 100 176 157.5t240 57.5 q218 0 354.5 -142.5t136.5 -365.5v-41h-821q13 -134 102 -221.5t238 -87.5q60 0 113 18.5t86.5 44.5t58.5 52t36 44l11 19l137 -100q-6 -10 -17 -25.5t-51.5 -56.5t-88 -72t-125.5 -56.5t-164 -25.5q-136 0 -246 58.5t-178 159.5q-67 -100 -175 -159t-239 -59 q-109 0 -195 28.5t-138.5 77.5t-79.5 109t-27 127zM203 326q0 -87 71 -140t191 -53q124 0 210.5 68.5t112.5 191.5q-115 121 -331 121q-107 0 -180.5 -50t-73.5 -138zM983 584h629q-25 115 -105.5 182.5t-203.5 67.5q-121 0 -206 -69.5t-114 -180.5z" />
<glyph unicode="&#xe7;" horiz-adv-x="1107" d="M61 487q0 136 63.5 251.5t177.5 184t253 68.5q192 0 317 -125v101h154v-396h-154v64q-9 22 -20.5 41.5t-37.5 50.5t-58 53t-83.5 38t-111.5 16q-139 0 -233.5 -98t-94.5 -249q0 -159 97 -256.5t256 -97.5q58 0 109.5 18.5t83 45t55 53t33.5 44.5l10 19l139 -82 q-5 -10 -14.5 -25.5t-45.5 -57t-78 -74.5t-112.5 -62t-149.5 -35l-51 -110q113 0 175.5 -54t62.5 -137q0 -103 -84 -165t-195 -62q-71 0 -133 13.5t-89 27.5l-26 14l52 107q77 -39 186 -39q56 0 96.5 24.5t40.5 73.5q0 37 -31.5 57.5t-87.5 20.5q-16 0 -33 -3t-25 -6l-9 -3 l-74 45l92 203q-185 28 -303.5 164.5t-118.5 338.5z" />
<glyph unicode="&#xe8;" horiz-adv-x="1118" d="M61 483q0 139 63.5 255t179.5 184.5t261 68.5q218 0 355 -142.5t137 -365.5v-41h-821q13 -134 101.5 -221.5t237.5 -87.5q60 0 113.5 18.5t87 44.5t58.5 52t36 44l11 19l137 -100q-6 -10 -17 -25.5t-52 -56.5t-88 -72t-125.5 -56.5t-164.5 -25.5q-148 0 -266 70 t-181 185.5t-63 252.5zM244 1466h203l221 -356h-139zM246 584h628q-25 115 -105.5 182.5t-203.5 67.5q-121 0 -205.5 -69.5t-113.5 -180.5z" />
<glyph unicode="&#xe9;" horiz-adv-x="1118" d="M61 483q0 139 63.5 255t179.5 184.5t261 68.5q218 0 355 -142.5t137 -365.5v-41h-821q13 -134 101.5 -221.5t237.5 -87.5q60 0 113.5 18.5t87 44.5t58.5 52t36 44l11 19l137 -100q-6 -10 -17 -25.5t-52 -56.5t-88 -72t-125.5 -56.5t-164.5 -25.5q-148 0 -266 70 t-181 185.5t-63 252.5zM246 584h628q-25 115 -105.5 182.5t-203.5 67.5q-121 0 -205.5 -69.5t-113.5 -180.5zM469 1110l221 356h203l-285 -356h-139z" />
<glyph unicode="&#xea;" horiz-adv-x="1118" d="M61 483q0 139 63.5 255t179.5 184.5t261 68.5q218 0 355 -142.5t137 -365.5v-41h-821q13 -134 101.5 -221.5t237.5 -87.5q60 0 113.5 18.5t87 44.5t58.5 52t36 44l11 19l137 -100q-6 -10 -17 -25.5t-52 -56.5t-88 -72t-125.5 -56.5t-164.5 -25.5q-148 0 -266 70 t-181 185.5t-63 252.5zM233 1110l221 356h207l221 -356h-147l-178 238l-176 -238h-148zM246 584h628q-25 115 -105.5 182.5t-203.5 67.5q-121 0 -205.5 -69.5t-113.5 -180.5z" />
<glyph unicode="&#xeb;" horiz-adv-x="1118" d="M61 483q0 139 63.5 255t179.5 184.5t261 68.5q218 0 355 -142.5t137 -365.5v-41h-821q13 -134 101.5 -221.5t237.5 -87.5q60 0 113.5 18.5t87 44.5t58.5 52t36 44l11 19l137 -100q-6 -10 -17 -25.5t-52 -56.5t-88 -72t-125.5 -56.5t-164.5 -25.5q-148 0 -266 70 t-181 185.5t-63 252.5zM246 584h628q-25 115 -105.5 182.5t-203.5 67.5q-121 0 -205.5 -69.5t-113.5 -180.5zM293 1229q0 41 29.5 70.5t70.5 29.5t71 -29.5t30 -70.5t-30 -71t-71 -30t-70.5 30t-29.5 71zM625 1229q0 41 29.5 70.5t70.5 29.5t70.5 -29.5t29.5 -70.5 t-29.5 -71t-70.5 -30t-70.5 30t-29.5 71z" />
<glyph unicode="&#xec;" horiz-adv-x="606" d="M-41 1466h203l221 -356h-139zM41 0v133h176v701h-176v133h348v-834h176v-133h-524z" />
<glyph unicode="&#xed;" horiz-adv-x="606" d="M41 0v133h176v701h-176v133h348v-834h176v-133h-524zM215 1110l221 356h203l-285 -356h-139z" />
<glyph unicode="&#xee;" horiz-adv-x="606" d="M-37 1110l221 356h207l221 -356h-147l-178 238l-176 -238h-148zM41 0v133h176v701h-176v133h348v-834h176v-133h-524z" />
<glyph unicode="&#xef;" horiz-adv-x="606" d="M16 1229q0 41 30 70.5t71 29.5t70.5 -29.5t29.5 -70.5t-29.5 -71t-70.5 -30t-71 30t-30 71zM41 0v133h176v701h-176v133h348v-834h176v-133h-524zM348 1229q0 41 30 70.5t71 29.5t70.5 -29.5t29.5 -70.5t-29.5 -71t-70.5 -30t-71 30t-30 71z" />
<glyph unicode="&#xf0;" horiz-adv-x="1150" d="M61 483q0 139 65.5 255.5t184 184.5t264.5 68q130 0 240 -55q-66 149 -176 293l-113 -99l-94 109l115 98q-27 30 -54 57t-40 38l-13 12l113 104q47 -38 115 -108l110 96l94 -109l-110 -94q152 -188 240 -405t88 -445q0 -104 -39 -197.5t-106 -162t-163.5 -108.5 t-206.5 -40q-146 0 -264.5 68t-184 184.5t-65.5 255.5zM233 483q0 -147 96 -248.5t246 -101.5t246.5 101.5t96.5 248.5t-96.5 249t-246.5 102t-246 -102t-96 -249z" />
<glyph unicode="&#xf1;" horiz-adv-x="1253" d="M41 0v133h176v701h-176v133h348v-90q118 114 291 114q175 0 271 -96.5t96 -273.5v-488h172v-133h-517v133h172v488q0 113 -54 175t-161 62q-54 0 -101.5 -17t-80 -45.5t-53 -53.5t-35.5 -52v-557h176v-133h-524zM305 1110q0 122 49.5 179t135.5 57q46 0 86.5 -16.5 t64 -36t50.5 -36t50 -16.5q70 0 70 96h117q0 -235 -185 -235q-37 0 -70.5 10.5t-56.5 26t-43.5 31t-41 26t-39.5 10.5q-70 0 -70 -96h-117z" />
<glyph unicode="&#xf2;" horiz-adv-x="1150" d="M61 483q0 139 65.5 255.5t184 184.5t264.5 68q110 0 206.5 -40t163.5 -108.5t106 -162t39 -197.5t-39 -197.5t-106 -162t-163.5 -108.5t-206.5 -40q-146 0 -264.5 68t-184 184.5t-65.5 255.5zM233 483q0 -147 96 -248.5t246 -101.5t246.5 101.5t96.5 248.5t-96.5 249 t-246.5 102t-246 -102t-96 -249zM250 1466h203l221 -356h-139z" />
<glyph unicode="&#xf3;" horiz-adv-x="1150" d="M61 483q0 139 65.5 255.5t184 184.5t264.5 68q110 0 206.5 -40t163.5 -108.5t106 -162t39 -197.5t-39 -197.5t-106 -162t-163.5 -108.5t-206.5 -40q-146 0 -264.5 68t-184 184.5t-65.5 255.5zM233 483q0 -147 96 -248.5t246 -101.5t246.5 101.5t96.5 248.5t-96.5 249 t-246.5 102t-246 -102t-96 -249zM481 1110l221 356h203l-284 -356h-140z" />
<glyph unicode="&#xf4;" horiz-adv-x="1150" d="M61 483q0 139 65.5 255.5t184 184.5t264.5 68q110 0 206.5 -40t163.5 -108.5t106 -162t39 -197.5t-39 -197.5t-106 -162t-163.5 -108.5t-206.5 -40q-146 0 -264.5 68t-184 184.5t-65.5 255.5zM233 483q0 -147 96 -248.5t246 -101.5t246.5 101.5t96.5 248.5t-96.5 249 t-246.5 102t-246 -102t-96 -249zM254 1110l221 356h207l221 -356h-147l-178 238l-176 -238h-148z" />
<glyph unicode="&#xf5;" horiz-adv-x="1150" d="M61 483q0 139 65.5 255.5t184 184.5t264.5 68q110 0 206.5 -40t163.5 -108.5t106 -162t39 -197.5t-39 -197.5t-106 -162t-163.5 -108.5t-206.5 -40q-146 0 -264.5 68t-184 184.5t-65.5 255.5zM233 483q0 -147 96 -248.5t246 -101.5t246.5 101.5t96.5 248.5t-96.5 249 t-246.5 102t-246 -102t-96 -249zM264 1110q0 122 49.5 179t135.5 57q46 0 86.5 -16.5t64 -36t50.5 -36t50 -16.5q70 0 70 96h117q0 -235 -185 -235q-37 0 -70.5 10.5t-56.5 26t-43.5 31t-41 26t-39.5 10.5q-70 0 -70 -96h-117z" />
<glyph unicode="&#xf6;" horiz-adv-x="1150" d="M61 483q0 139 65.5 255.5t184 184.5t264.5 68q110 0 206.5 -40t163.5 -108.5t106 -162t39 -197.5t-39 -197.5t-106 -162t-163.5 -108.5t-206.5 -40q-146 0 -264.5 68t-184 184.5t-65.5 255.5zM233 483q0 -147 96 -248.5t246 -101.5t246.5 101.5t96.5 248.5t-96.5 249 t-246.5 102t-246 -102t-96 -249zM309 1229q0 41 30 70.5t71 29.5t70.5 -29.5t29.5 -70.5t-29.5 -71t-70.5 -30t-71 30t-30 71zM641 1229q0 41 29.5 70.5t70.5 29.5t71 -29.5t30 -70.5t-30 -71t-71 -30t-70.5 30t-29.5 71z" />
<glyph unicode="&#xf7;" horiz-adv-x="1036" d="M82 430v152h872v-152h-872zM426 238q0 38 27 65t65 27t65 -27t27 -65t-27 -65.5t-65 -27.5t-65 27.5t-27 65.5zM426 774q0 38 27 65t65 27t65 -27t27 -65t-27 -65t-65 -27t-65 27t-27 65z" />
<glyph unicode="&#xf8;" horiz-adv-x="1150" d="M61 483q0 139 65.5 255.5t184 184.5t264.5 68q137 0 246 -59l68 88l115 -88l-64 -84q71 -70 110.5 -164.5t39.5 -200.5q0 -104 -39 -197.5t-106 -162t-163.5 -108.5t-206.5 -40q-130 0 -247 60l-66 -88l-115 88l64 84q-71 70 -110.5 164t-39.5 200zM233 483 q0 -132 78 -229l412 547q-71 33 -148 33q-150 0 -246 -102t-96 -249zM426 164q67 -31 149 -31q150 0 246.5 101.5t96.5 248.5q0 134 -80 230z" />
<glyph unicode="&#xf9;" horiz-adv-x="1253" d="M35 834v133h344v-621q0 -113 54 -175t161 -62q54 0 100.5 17t79.5 45.5t53.5 53t36.5 51.5v558h-176v133h348v-834h176v-133h-348v90q-119 -115 -291 -115q-175 0 -270.5 97t-95.5 274v488h-172zM233 1466h203l221 -356h-139z" />
<glyph unicode="&#xfa;" horiz-adv-x="1253" d="M35 834v133h344v-621q0 -113 54 -175t161 -62q54 0 100.5 17t79.5 45.5t53.5 53t36.5 51.5v558h-176v133h348v-834h176v-133h-348v90q-119 -115 -291 -115q-175 0 -270.5 97t-95.5 274v488h-172zM465 1110l221 356h203l-285 -356h-139z" />
<glyph unicode="&#xfb;" horiz-adv-x="1253" d="M35 834v133h344v-621q0 -113 54 -175t161 -62q54 0 100.5 17t79.5 45.5t53.5 53t36.5 51.5v558h-176v133h348v-834h176v-133h-348v90q-119 -115 -291 -115q-175 0 -270.5 97t-95.5 274v488h-172zM268 1110l221 356h207l221 -356h-147l-178 238l-176 -238h-148z" />
<glyph unicode="&#xfc;" horiz-adv-x="1253" d="M35 834v133h344v-621q0 -113 54 -175t161 -62q54 0 100.5 17t79.5 45.5t53.5 53t36.5 51.5v558h-176v133h348v-834h176v-133h-348v90q-119 -115 -291 -115q-175 0 -270.5 97t-95.5 274v488h-172zM319 1229q0 41 30 70.5t71 29.5t70.5 -29.5t29.5 -70.5t-29.5 -71 t-70.5 -30t-71 30t-30 71zM651 1229q0 41 30 70.5t71 29.5t70.5 -29.5t29.5 -70.5t-29.5 -71t-70.5 -30t-71 30t-30 71z" />
<glyph unicode="&#xfd;" horiz-adv-x="1181" d="M10 834v133h500v-133h-176l256 -629l268 629h-178v133h491v-133h-133l-444 -1049h156v-133h-494v133h158l84 203l-355 846h-133zM467 1110l221 356h203l-285 -356h-139z" />
<glyph unicode="&#xfe;" d="M41 -215h176v1573h-176v133h348v-608q140 108 332 108q215 0 360.5 -142.5t145.5 -363.5q0 -218 -142 -364t-372 -146q-186 0 -324 109v-299h205v-133h-553v133zM389 276q15 -19 35.5 -38t59 -45.5t97.5 -43t128 -16.5q155 0 250.5 95.5t95.5 252.5q0 154 -99.5 253.5 t-259.5 99.5q-61 0 -115.5 -15.5t-93 -40.5t-60 -43t-38.5 -37v-422z" />
<glyph unicode="&#xff;" horiz-adv-x="1181" d="M10 834v133h500v-133h-176l256 -629l268 629h-178v133h491v-133h-133l-444 -1049h156v-133h-494v133h158l84 203l-355 846h-133zM324 1229q0 41 29.5 70.5t70.5 29.5t70.5 -29.5t29.5 -70.5t-29.5 -71t-70.5 -30t-70.5 30t-29.5 71zM655 1229q0 41 30 70.5t71 29.5 t70.5 -29.5t29.5 -70.5t-29.5 -71t-70.5 -30t-71 30t-30 71z" />
<glyph unicode="&#x152;" horiz-adv-x="2451" d="M72 745q0 159 59.5 302.5t161.5 247.5t245.5 165.5t303.5 61.5q175 0 326.5 -71.5t258.5 -197.5v238h922v-463h-176v315h-561v-477h446v-147h-446v-572h561v316h176v-463h-922v236q-106 -125 -258 -196t-327 -71q-160 0 -303.5 61t-245.5 165t-161.5 247.5t-59.5 302.5z M256 745q0 -164 75.5 -301t210 -217t300.5 -80t300.5 80t209.5 217t75 301t-75 301t-209.5 217t-300.5 80t-300.5 -80t-210 -217t-75.5 -301z" />
<glyph unicode="&#x153;" horiz-adv-x="1974" d="M61 483q0 139 65.5 255.5t184 184.5t264.5 68q135 0 246 -59t180 -160q68 101 177 160t243 59q218 0 355 -142.5t137 -365.5v-41h-821q13 -134 102 -221.5t238 -87.5q60 0 113 18.5t86.5 44.5t58.5 52t36 44l11 19l137 -100q-6 -10 -17 -25.5t-52 -56.5t-88 -72 t-125.5 -56.5t-164.5 -25.5q-137 0 -247.5 59t-178.5 161q-69 -102 -180 -161t-246 -59q-146 0 -264.5 68t-184 184.5t-65.5 255.5zM233 483q0 -147 96 -248.5t246 -101.5t246.5 101.5t96.5 248.5t-96.5 249t-246.5 102t-246 -102t-96 -249zM1102 584h629 q-25 115 -106 182.5t-204 67.5q-121 0 -205.5 -69.5t-113.5 -180.5z" />
<glyph unicode="&#x178;" horiz-adv-x="1363" d="M20 1343v148h558v-148h-187l291 -528l293 528h-189v148h557v-148h-159l-410 -727v-469h217v-147h-618v147h217v463l-410 733h-160zM416 1753q0 41 30 70.5t71 29.5t70.5 -29.5t29.5 -70.5t-29.5 -71t-70.5 -30t-71 30t-30 71zM748 1753q0 41 29.5 70.5t70.5 29.5 t71 -29.5t30 -70.5t-30 -71t-71 -30t-70.5 30t-29.5 71z" />
<glyph unicode="&#x2c6;" horiz-adv-x="751" d="M51 1110l221 356h207l221 -356h-147l-178 238l-176 -238h-148z" />
<glyph unicode="&#x2dc;" horiz-adv-x="724" d="M51 1110q0 122 49.5 179t135.5 57q46 0 86.5 -16.5t64 -36t50.5 -36t50 -16.5q70 0 70 96h117q0 -235 -185 -235q-37 0 -70.5 10.5t-56.5 26t-43.5 31t-41 26t-39.5 10.5q-70 0 -70 -96h-117z" />
<glyph unicode="&#x2000;" horiz-adv-x="1050" />
<glyph unicode="&#x2001;" horiz-adv-x="2101" />
<glyph unicode="&#x2002;" horiz-adv-x="1050" />
<glyph unicode="&#x2003;" horiz-adv-x="2101" />
<glyph unicode="&#x2004;" horiz-adv-x="700" />
<glyph unicode="&#x2005;" horiz-adv-x="525" />
<glyph unicode="&#x2006;" horiz-adv-x="350" />
<glyph unicode="&#x2007;" horiz-adv-x="350" />
<glyph unicode="&#x2008;" horiz-adv-x="262" />
<glyph unicode="&#x2009;" horiz-adv-x="420" />
<glyph unicode="&#x200a;" horiz-adv-x="116" />
<glyph unicode="&#x2010;" horiz-adv-x="757" d="M113 453v172h532v-172h-532z" />
<glyph unicode="&#x2011;" horiz-adv-x="757" d="M113 453v172h532v-172h-532z" />
<glyph unicode="&#x2012;" horiz-adv-x="757" d="M113 453v172h532v-172h-532z" />
<glyph unicode="&#x2013;" horiz-adv-x="1300" d="M123 463v151h1055v-151h-1055z" />
<glyph unicode="&#x2014;" horiz-adv-x="1982" d="M123 463v151h1737v-151h-1737z" />
<glyph unicode="&#x2018;" horiz-adv-x="352" d="M82 1073v209l123 209h67l-122 -209h120v-209h-188z" />
<glyph unicode="&#x2019;" horiz-adv-x="352" d="M80 1073l123 209h-121v209h188v-209l-123 -209h-67z" />
<glyph unicode="&#x201a;" horiz-adv-x="352" d="M80 -209l123 209h-121v209h188v-209l-123 -209h-67z" />
<glyph unicode="&#x201c;" horiz-adv-x="647" d="M82 1073v209l123 209h67l-122 -209h120v-209h-188zM377 1073v209l123 209h67l-123 -209h121v-209h-188z" />
<glyph unicode="&#x201d;" horiz-adv-x="647" d="M80 1073l123 209h-121v209h188v-209l-123 -209h-67zM375 1073l123 209h-121v209h188v-209l-123 -209h-67z" />
<glyph unicode="&#x201e;" horiz-adv-x="647" d="M80 -209l123 209h-121v209h188v-209l-123 -209h-67zM375 -209l123 209h-121v209h188v-209l-123 -209h-67z" />
<glyph unicode="&#x2022;" horiz-adv-x="507" d="M72 727q0 75 53.5 128.5t128.5 53.5t128.5 -53.5t53.5 -128.5t-53.5 -128.5t-128.5 -53.5t-128.5 53.5t-53.5 128.5z" />
<glyph unicode="&#x2026;" horiz-adv-x="1200" d="M92 0v209h189v-209h-189zM506 0v209h188v-209h-188zM920 0v209h188v-209h-188z" />
<glyph unicode="&#x202f;" horiz-adv-x="420" />
<glyph unicode="&#x2039;" horiz-adv-x="534" d="M51 375l244 375h188l-239 -375l239 -375h-188z" />
<glyph unicode="&#x203a;" horiz-adv-x="534" d="M51 0l240 375l-240 375h189l243 -375l-243 -375h-189z" />
<glyph unicode="&#x205f;" horiz-adv-x="525" />
<glyph unicode="&#x20ac;" horiz-adv-x="1136" d="M-41 528l35 144h82q-2 23 -2 73v37h-111l35 144h86q33 282 168 439t336 157q181 0 299 -150v119h170v-451h-178q-1 7 -3.5 18t-12.5 43.5t-23 62.5t-37 66t-52.5 62t-71 44t-91.5 18q-131 0 -215 -111t-109 -317h479l-38 -144h-451v-37q0 -50 2 -73h420l-37 -144h-369 q31 -189 116 -290t210 -101q69 0 125.5 32.5t87.5 78.5t52 92t27 78l7 33h180l-5.5 -27.5t-19 -67.5t-36 -95.5t-59.5 -101t-86 -95.5t-118.5 -67.5t-154.5 -27.5q-196 0 -330.5 146.5t-175.5 412.5h-131z" />
<glyph unicode="&#x2122;" horiz-adv-x="1531" d="M61 1262v229h541v-229h-100v141h-119v-518h106v-86h-317v86h109v518h-119v-141h-101zM678 799v86h88v518h-88v88h258l147 -440l152 440h256v-88h-88v-518h88v-86h-281v86h90v520l-174 -520h-84l-174 520v-520h90v-86h-280z" />
<glyph unicode="&#x25fc;" horiz-adv-x="962" d="M0 0v963h963v-963h-963z" />
</font>
</defs>
</svg>
